<svg fill="#505F79" xmlns="http://www.w3.org/2000/svg"  viewBox="0 0 50 50" width="50px" height="50px"><path d="M29.6 20.867c1.075.118 3.819.464 5.717.738.783-2.23 2.077-5.894 2.692-7.715.483-1.625.967-3.25 1.16-4.875.097-1.147-.097-2.198-.87-3.154-.87-1.147-2.146-.986-3.499.256-.193.191-.483.383-.58.669-1.063 1.243-1.836 2.772-2.513 4.206-1.16 2.198-2.852 6.954-3.625 9.344-.037.13-.087.244-.131.366-.023-.002-.046-.005-.069-.007C28.561 20.763 29.232 20.83 29.6 20.867zM19.558 20.772c.052.02.104.038.181.075.373.229.519.354.685.5.189.169.403.387.625.626.192-.435.489-.843.913-1.203 1.16-.765 2.514-.287 3.77-.287 0 0 .606.059 1.353.133-1.066-3.237-2.966-9.222-4.192-11.647-.677-1.338-1.354-2.581-2.224-3.727C20.284 4.669 19.8 4.191 19.027 4c-1.16-.191-1.897.236-2.67 1.861-.387.956-.483 2.007-.483 3.154.29 1.243.58 2.485.966 3.728C17.401 14.46 18.624 18.033 19.558 20.772zM26.12 32.049c.773-1.147 1.836-1.911 2.996-2.772-1.428-.088-2.771-.268-4.035-.67.365.583.734 1.174.849 1.963.059.402.062 1.092-.105 1.858C25.92 32.305 26.017 32.181 26.12 32.049z"/><path d="M39.916,27.595c-0.039-0.363-0.094-0.726-0.167-1.089c-0.069-0.306-0.156-0.61-0.253-0.912c-0.297-0.579-0.725-1.075-1.347-1.382c-0.483-0.191-0.87-0.382-1.353-0.574c-2.996-1.051-8.066-1.338-11.16-1.624c-0.676,0-1.256,0-1.933,0.191c-0.483,0.191-0.87,0.478-0.87,1.051c-0.039,0.471,0.025,0.9,0.155,1.301c0.197,0.318,0.388,0.653,0.576,1c0.154,0.167,0.32,0.329,0.526,0.472c0.676,0.478,1.546,0.764,2.416,0.956c1.934,0.382,3.963,0.382,5.993,0.382c0.484,0,0.87,0,1.354,0.095c0.483,0.096,0.58,0.478,0.676,0.956c0.097,0.383-0.193,0.574-0.483,0.669c-0.58,0.287-1.063,0.478-1.643,0.669c-2.32,0.861-4.06,2.39-5.317,4.492c-0.87,1.53-1.16,3.154-0.483,4.875c0.193,0.382,0.29,0.764,0.387,1.242c0.096,0.383,0.193,0.861,0.096,1.338c-0.966-0.191-1.546-0.669-2.03-1.433c-0.386-0.765-0.579-1.625-0.676-2.485c-0.097-0.478-0.097-0.956-0.097-1.434c0.065-0.592,0.154-1.081,0.265-1.501c-0.281,0.289-0.595,0.565-0.991,0.796c-0.489,0.322-1.233,0.357-1.862,0.304c0.049,0.108,0.101,0.218,0.145,0.323c0,0.191,0.097,0.287,0.097,0.383c0.29,1.147-0.194,2.198-1.16,2.867c-0.774,0.573-1.74,0.573-2.61,0.382c-1.547-0.382-2.957-1.408-3.923-2.65c-0.484-0.669-0.967-1.434-1.063-2.199c-0.29-0.764-0.29-1.147,0.193-1.624c0.096,0.191,0.29,0.286,0.386,0.477c0.484,0.574,0.87,1.147,1.354,1.721c0.58,0.669,1.41,1.408,2.183,1.695c0.677,0.286,1.257,0.286,1.933,0c0.58-0.287,0.677-0.669,0.58-1.243c-0.097-0.191-0.193-0.382-0.29-0.573c-0.677-1.338-1.546-2.581-2.61-3.632c-0.58-0.574-3.159-3.501-4.773-2.721c-1.123,0.715-1.851,1.816-2.062,3.276c-0.193,1.625,0,3.059,0.483,4.588c0.967,3.059,4.253,6.404,7.54,7.742c2.513,1.051,5.123,1.434,7.829,1.147c1.934-0.096,3.867-0.669,5.607-1.529c3.48-1.721,5.799-4.493,7.249-8.029c0.677-1.72,1.064-3.632,1.16-5.543c0.014-0.214,0.021-0.428,0.031-0.642C39.973,29.562,39.973,28.525,39.916,27.595z"/><path d="M24.082,31.597c0-1.597-3.475-7.037-4.731-8.662c-0.517-0.669-1.129-1.326-2.052-1.155c-1.029,0.192-1.895,0.805-2.584,1.572c-0.047,0.051-0.083,0.104-0.127,0.156c-0.245,0.394-0.387,0.798-0.363,1.159v0.095c-0.003,0.738,0.29,1.052,0.484,1.529c0.675,1.335,2.029,3.059,3.512,4.69c0.069,0.073,0.137,0.149,0.206,0.223c0.41,0.447,0.826,0.891,1.24,1.325c0.707,0.698,1.517,1.855,2.655,1.356c0.716-0.314,1.423-1.114,1.68-1.851C24.054,31.886,24.082,31.74,24.082,31.597z"/></svg>