<?xml version="1.0" encoding="UTF-8"?>
<svg xmlns="http://www.w3.org/2000/svg" xmlns:xlink="http://www.w3.org/1999/xlink" viewBox="0 0 480 480" width="480px" height="480px">
<g id="surface76845857">
<path style=" stroke:none;fill-rule:nonzero;fill:rgb(49.803922%,54.901963%,100%);fill-opacity:1;" d="M 397.078125 50.449219 C 339.148438 39.160156 283.179688 30.28125 236.328125 30.039062 L 236.328125 30 C 236.011719 30 235.671875 30.019531 235.359375 30.019531 C 235.03125 30.019531 234.691406 30 234.371094 30 L 234.371094 30.039062 C 187.949219 30.28125 132.5 39.160156 75.121094 50.449219 C 67.699219 196.160156 59.421875 369.050781 235.351562 453.730469 C 401.589844 360.519531 406.71875 238.230469 397.078125 50.449219 Z M 397.078125 50.449219 "/>
<path style=" stroke:none;fill-rule:nonzero;fill:rgb(20.392157%,27.058825%,38.82353%);fill-opacity:1;" d="M 75.121094 50.449219 C 72.511719 101.691406 69.839844 156.28125 75.058594 209.230469 L 233.25 209.230469 L 234.820312 453.460938 C 235.011719 453.550781 235.179688 453.648438 235.359375 453.738281 C 350.300781 389.28125 388.199219 313.191406 397.46875 208.898438 L 234.210938 208.898438 L 234.210938 30.050781 C 187.820312 30.308594 132.441406 39.179688 75.121094 50.449219 Z M 75.121094 50.449219 "/>
<path style=" stroke:none;fill-rule:nonzero;fill:rgb(98.039216%,98.039216%,98.039216%);fill-opacity:1;" d="M 112.488281 96.640625 C 112.488281 96.640625 101.070312 99.578125 100.738281 108.710938 C 106.609375 106.75 113.789062 107.398438 113.789062 107.398438 Z M 112.488281 96.640625 "/>
<path style=" stroke:none;fill-rule:nonzero;fill:rgb(98.039216%,98.039216%,98.039216%);fill-opacity:1;" d="M 113.789062 72.171875 C 113.789062 72.171875 122.601562 70.859375 125.859375 75.429688 C 129.121094 70.210938 132.058594 67.601562 132.058594 67.601562 C 132.058594 67.601562 119.011719 60.421875 113.789062 72.171875 Z M 113.789062 72.171875 "/>
<path style=" stroke:none;fill-rule:nonzero;fill:rgb(98.039216%,98.039216%,98.039216%);fill-opacity:1;" d="M 144.789062 58.789062 C 144.789062 58.789062 150.011719 58.460938 151.96875 67.269531 C 156.859375 66.941406 162.410156 66.941406 162.410156 66.941406 C 162.410156 66.941406 160.460938 54.871094 144.789062 58.789062 Z M 144.789062 58.789062 "/>
<path style=" stroke:none;fill-rule:nonzero;fill:rgb(98.039216%,98.039216%,98.039216%);fill-opacity:1;" d="M 114.828125 160.019531 C 114.828125 160.019531 104.019531 153.371094 97.589844 161.890625 C 97.589844 161.890625 105.28125 163.421875 108 167.429688 C 110.648438 162.03125 114.828125 160.019531 114.828125 160.019531 Z M 114.828125 160.019531 "/>
<path style=" stroke:none;fill-rule:nonzero;fill:rgb(98.039216%,98.039216%,98.039216%);fill-opacity:1;" d="M 99.109375 182.300781 C 99.109375 182.300781 91.28125 186.21875 94.871094 196.660156 C 98.460938 191.441406 105.640625 190.789062 105.640625 190.789062 Z M 99.109375 182.300781 "/>
<path style=" stroke:none;fill-rule:nonzero;fill:rgb(98.039216%,98.039216%,98.039216%);fill-opacity:1;" d="M 105.960938 208.570312 C 105.960938 208.570312 98.128906 221.949219 106.289062 227.171875 L 111.179688 219.339844 Z M 105.960938 208.570312 "/>
<path style=" stroke:none;fill-rule:nonzero;fill:rgb(98.039216%,98.039216%,98.039216%);fill-opacity:1;" d="M 155.238281 259.148438 C 155.238281 259.148438 140.878906 255.230469 133.378906 261.761719 L 149.039062 266 Z M 155.238281 259.148438 "/>
<path style=" stroke:none;fill-rule:nonzero;fill:rgb(98.039216%,98.039216%,98.039216%);fill-opacity:1;" d="M 132.71875 285.589844 C 132.71875 285.589844 123.578125 294.398438 129.128906 302.890625 C 130.109375 295.378906 140.230469 292.121094 140.230469 292.121094 Z M 132.71875 285.589844 "/>
<path style=" stroke:none;fill-rule:nonzero;fill:rgb(98.039216%,98.039216%,98.039216%);fill-opacity:1;" d="M 152.949219 310.390625 C 152.949219 310.390625 146.421875 321.488281 155.890625 328.339844 C 155.238281 320.179688 162.421875 313 162.421875 313 Z M 152.949219 310.390625 "/>
<path style=" stroke:none;fill-rule:nonzero;fill:rgb(98.039216%,98.039216%,98.039216%);fill-opacity:1;" d="M 221.480469 357.378906 C 221.480469 357.378906 207.769531 366.839844 214.300781 376.628906 C 217.890625 371.078125 227.351562 366.511719 227.351562 366.511719 Z M 221.480469 357.378906 "/>
<path style=" stroke:none;fill-rule:nonzero;fill:rgb(98.039216%,98.039216%,98.039216%);fill-opacity:1;" d="M 231.601562 375.660156 C 231.601562 375.660156 221.160156 384.140625 228.339844 393.929688 C 229.648438 388.058594 239.109375 382.179688 239.109375 382.179688 Z M 231.601562 375.660156 "/>
<path style=" stroke:none;fill-rule:nonzero;fill:rgb(98.039216%,98.039216%,98.039216%);fill-opacity:1;" d="M 251.5 389.691406 C 251.5 389.691406 246.609375 398.5 255.738281 406.011719 C 254.761719 395.570312 261.941406 390.351562 261.941406 390.351562 Z M 251.5 389.691406 "/>
<path style=" stroke:none;fill-rule:nonzero;fill:rgb(20.392157%,28.627452%,36.862746%);fill-opacity:1;" d="M 235.53125 459.371094 L 233.191406 458.238281 C 53.761719 371.878906 62.828125 193.511719 70.121094 50.199219 L 70.320312 46.300781 L 74.148438 45.539062 C 120.410156 36.441406 179.421875 26 229.371094 25.101562 L 229.371094 25.050781 L 234.371094 25.011719 L 235.839844 30 L 235.691406 25.011719 L 240.839844 24.859375 L 240.859375 25.089844 C 291.378906 25.929688 351.179688 36.410156 398.03125 45.539062 L 401.871094 46.289062 L 402.070312 50.199219 C 411.871094 241.191406 405.710938 363.949219 237.800781 458.101562 Z M 79.910156 54.609375 C 72.5 200.648438 65.671875 364.96875 235.191406 448.089844 C 394.699219 357.570312 401.558594 238.648438 392.289062 54.609375 C 345.039062 45.480469 285.558594 35.300781 236.300781 35.050781 L 234.390625 35.050781 C 185.609375 35.289062 126.699219 45.46875 79.910156 54.609375 Z M 79.910156 54.609375 "/>
<path style=" stroke:none;fill-rule:nonzero;fill:rgb(20.392157%,28.627452%,36.862746%);fill-opacity:1;" d="M 200.921875 100.828125 L 212.019531 119.589844 C 212.019531 119.589844 240.410156 119.101562 236.660156 102.949219 C 232.898438 86.800781 200.921875 100.828125 200.921875 100.828125 Z M 200.921875 100.828125 "/>
<path style=" stroke:none;fill-rule:nonzero;fill:rgb(92.54902%,94.117647%,94.509804%);fill-opacity:1;" d="M 197.980469 135.480469 C 197.980469 135.480469 180.519531 123.839844 171.378906 121.878906 C 159.800781 112.851562 165.339844 91.421875 165.339844 91.421875 C 165.339844 91.421875 179.371094 67.871094 155.21875 64.929688 C 146.738281 62.96875 145.429688 74.769531 145.429688 74.769531 C 145.429688 74.769531 137.921875 63.671875 127.160156 68.238281 C 116.390625 72.808594 125.851562 88.800781 125.851562 88.800781 C 125.851562 88.800781 111.488281 87.171875 111.171875 101.199219 C 110.839844 115.230469 123.570312 115.878906 123.570312 115.878906 C 123.570312 115.878906 129.769531 105.109375 138.25 115.550781 C 146.730469 125.988281 131.070312 126.96875 131.070312 126.96875 C 131.070312 126.96875 136.289062 135.449219 145.429688 135.128906 C 154.570312 134.800781 157.828125 142.640625 149.019531 143.609375 C 156.851562 158.621094 176.761719 159.21875 176.761719 159.21875 L 166.320312 162.859375 L 186.550781 177.21875 L 181.328125 183.75 C 181.328125 183.75 167.300781 185.378906 157.179688 180.488281 C 147.058594 175.601562 138.910156 183.101562 138.910156 183.101562 C 138.910156 183.101562 136.949219 166.78125 129.121094 164.171875 C 125.199219 151.441406 101.710938 157.96875 105.300781 173.308594 C 96.160156 175.269531 95.019531 192.839844 110.679688 196.101562 C 102.519531 207.851562 104.96875 216.390625 112.148438 220.628906 C 119.328125 224.871094 126.511719 220.960938 129.121094 213.121094 C 131.730469 205.289062 145.441406 214.429688 136.300781 221.929688 C 148.699219 223.890625 151.308594 220.621094 156.210938 217.359375 C 161.101562 214.101562 173.179688 216.378906 161.101562 224.871094 C 175.78125 229.441406 182.960938 228.460938 188.191406 222.910156 C 193.410156 217.359375 201.570312 222.261719 190.46875 229.109375 C 208.421875 231.390625 218.53125 230.421875 225.058594 223.238281 C 223.429688 230.421875 233.871094 236.949219 233.871094 236.949219 C 233.871094 236.949219 199.28125 233.03125 196.019531 251.628906 C 192.761719 270.230469 203.199219 272.839844 204.179688 277.410156 C 205.160156 281.980469 197.980469 282.628906 192.761719 281 C 187.539062 279.371094 175.789062 276.429688 168.941406 278.058594 C 176.449219 262.71875 172.199219 250 154.578125 257.171875 C 147.398438 259.78125 147.070312 269.570312 147.070312 269.570312 C 147.070312 269.570312 133.039062 272.179688 135 288.5 C 136.960938 304.820312 149.359375 303.839844 149.359375 303.839844 C 149.359375 303.839844 145.441406 315.589844 157.191406 315.910156 C 168.941406 316.238281 167.308594 301.550781 173.511719 302.859375 C 179.710938 304.171875 176.769531 319.5 176.769531 319.5 C 176.769531 319.5 198.960938 322.441406 212.011719 321.128906 C 211.679688 326.351562 212.988281 329.289062 212.988281 329.289062 C 212.988281 329.289062 220.5 313.300781 244.96875 312.648438 C 255.089844 325.378906 253.449219 326.679688 264.21875 329.289062 C 274.988281 331.898438 280.210938 340.058594 271.398438 341.691406 C 262.589844 343.320312 256.71875 360.289062 256.71875 360.289062 C 256.71875 360.289062 243.671875 343.96875 229.960938 346.910156 C 216.25 349.851562 220.5 369.75 229.628906 371.710938 C 228.648438 382.148438 243.660156 385.089844 251.488281 384.441406 C 250.839844 393.578125 262.589844 393.851562 266.828125 386.671875 C 271.070312 379.488281 270.75 378.570312 270.75 378.570312 C 270.75 378.570312 280.378906 389.449219 294.898438 362.578125 C 304.359375 360.621094 298.820312 344.308594 298.820312 344.308594 C 298.820312 344.308594 319.050781 340.070312 308.941406 323.421875 C 298.820312 306.78125 296.539062 281.648438 296.539062 281.648438 C 296.539062 281.648438 301.761719 284.910156 302.410156 273.820312 C 315.460938 277.078125 320.359375 280.019531 328.839844 291.441406 C 337.320312 302.859375 327.210938 308.410156 337 319.828125 C 335.371094 327.011719 333.082031 330.929688 333.082031 330.929688 C 333.082031 330.929688 355.921875 322.121094 350.699219 295.691406 C 365.378906 286.550781 383.332031 266.96875 361.46875 237.929688 C 339.609375 208.890625 316.441406 172.011719 324.921875 140.679688 C 333.398438 109.351562 354.289062 115.550781 358.859375 119.140625 C 363.429688 122.730469 368.320312 147.199219 357.230469 155.691406 C 346.128906 164.171875 346.789062 175.921875 347.441406 183.429688 C 348.089844 190.941406 346.789062 197.789062 346.789062 197.789062 C 346.789062 197.789062 353.640625 194.851562 355.929688 186.691406 C 356.582031 199.089844 362.128906 206.921875 362.128906 206.921875 L 371.269531 191.910156 L 377.46875 193.871094 C 377.46875 193.871094 377.800781 169.398438 370.621094 158.300781 C 378.78125 134.480469 389.21875 110 362.140625 96.300781 C 335.050781 82.589844 309.929688 131.871094 307.96875 139.050781 C 306.011719 146.230469 298.179688 185.390625 323.628906 218.019531 C 349.082031 250.648438 361.160156 264.03125 353.648438 271.210938 C 346.140625 278.390625 326.238281 268.929688 314.820312 259.789062 C 313.191406 248.371094 312.539062 237.929688 302.089844 232.050781 C 303.71875 218.671875 291.648438 200.71875 282.511719 191.910156 C 292.628906 179.839844 290.671875 169.390625 289.691406 159.28125 C 293.929688 160.261719 298.832031 162.871094 298.832031 162.871094 L 296.871094 131.871094 C 296.871094 131.871094 310.582031 128.609375 304.699219 113.921875 C 304.699219 113.921875 302.089844 83.898438 299.148438 77.039062 C 306.660156 76.710938 279.898438 60.398438 279.898438 60.398438 L 283.160156 49.628906 C 283.160156 49.628906 263.910156 49.300781 257.710938 44.078125 C 257.058594 53.21875 239.761719 58.109375 239.109375 48.648438 C 234.539062 48.320312 228.671875 48.648438 228.671875 48.648438 C 228.671875 48.648438 233.238281 55.179688 225.410156 59.75 C 217.582031 64.320312 208.769531 69.871094 207.460938 76.070312 C 198.648438 77.050781 197.671875 83.578125 197.671875 83.578125 C 197.671875 83.578125 186.570312 84.230469 192.78125 94.351562 C 198.988281 104.46875 209.75 107.730469 216.28125 99.238281 C 223.128906 97.609375 230.640625 95.648438 233.25 107.070312 C 235.859375 118.488281 209.75 115.878906 209.75 115.878906 C 209.75 115.878906 211.058594 122.730469 220.851562 122.730469 C 230.640625 122.730469 197.980469 135.480469 197.980469 135.480469 Z M 197.980469 135.480469 "/>
<path style=" stroke:none;fill-rule:nonzero;fill:rgb(20.392157%,28.627452%,36.862746%);fill-opacity:1;" d="M 213.320312 82.609375 L 218.210938 84.570312 L 224.738281 82.609375 C 224.738281 82.609375 225.71875 87.5 231.589844 85.871094 C 237.460938 84.238281 234.199219 79.019531 234.199219 79.019531 C 234.199219 79.019531 246.601562 73.800781 250.191406 85.871094 C 253.78125 97.941406 243.988281 100.878906 243.988281 100.878906 C 243.988281 100.878906 247.25 118.828125 232.570312 121.769531 C 217.890625 124.710938 209.730469 115.898438 209.730469 115.898438 C 209.730469 115.898438 212.011719 126.019531 204.839844 134.171875 C 216.261719 138.410156 225.398438 129.929688 225.398438 129.929688 C 225.398438 129.929688 244.328125 129.929688 253.140625 115.25 C 268.800781 122.101562 270.109375 108.398438 262.28125 94.359375 C 269.789062 92.078125 269.789062 90.769531 269.789062 90.769531 C 269.789062 90.769531 262.609375 84.898438 266.53125 76.410156 C 257.070312 77.390625 254.128906 68.578125 254.128906 64.339844 C 243.691406 70.871094 236.511719 69.558594 235.53125 64.671875 C 228.660156 74.121094 213.320312 82.609375 213.320312 82.609375 Z M 213.320312 82.609375 "/>
<path style=" stroke:none;fill-rule:nonzero;fill:rgb(20.392157%,28.627452%,36.862746%);fill-opacity:1;" d="M 266.191406 58.128906 C 266.191406 58.128906 282.828125 52.578125 285.441406 47.691406 C 288.050781 59.441406 287.070312 63.03125 287.070312 63.03125 C 287.070312 63.03125 299.46875 70.539062 309.589844 67.921875 C 315.460938 77.378906 299.148438 77.058594 299.148438 77.058594 C 299.148438 77.058594 308.289062 87.941406 306 102.191406 C 309.101562 111.441406 307.960938 128.300781 299.46875 134.171875 C 297.511719 150.160156 299.960938 164.46875 299.960938 164.46875 L 291.308594 160.609375 C 291.308594 160.609375 296.859375 172.03125 294.25 179.859375 C 291.640625 187.691406 290.011719 189.980469 294.578125 194.871094 C 289.359375 205.308594 299.46875 207.601562 301.761719 216.410156 C 304.039062 225.21875 303.71875 231.421875 303.71875 231.421875 C 303.71875 231.421875 321.019531 241.210938 318.398438 259.480469 C 318.398438 259.480469 341.570312 266.660156 347.769531 283.949219 C 349.730469 289.5 355.28125 283.949219 355.28125 280.03125 C 361.480469 281.660156 364.949219 277.429688 363.441406 265.019531 C 362.109375 254.109375 350.839844 234.300781 338.308594 217.96875 C 328.601562 205.320312 311.878906 175.929688 316.121094 153.410156 C 320.359375 130.890625 336.351562 108.378906 355.28125 112.941406 C 374.210938 117.511719 362.460938 149.109375 362.460938 149.109375 C 362.460938 149.109375 365.71875 119.46875 353.980469 118.808594 C 342.230469 118.160156 326.238281 131.859375 325.261719 155.03125 C 324.28125 178.199219 339.941406 204.308594 347.449219 212.140625 C 354.960938 219.96875 369.308594 235.640625 374.210938 246.398438 C 379.101562 257.171875 374.539062 266.308594 374.539062 266.308594 C 374.539062 266.308594 384.660156 281.648438 368.988281 292.089844 C 371.269531 300.898438 356.921875 302.859375 352.671875 300.25 C 354.949219 310.691406 350.710938 324.070312 342.878906 327.339844 C 346.46875 312.660156 346.800781 304.820312 340.921875 297.320312 C 335.050781 289.808594 331.621094 289.269531 331.621094 297.429688 C 324.109375 284.699219 317.261719 275.730469 302.25 274.75 C 296.699219 262.019531 282.179688 261.75 282.179688 261.75 C 282.179688 261.75 292.949219 242.5 279.570312 233.691406 C 285.441406 220.308594 264.890625 203.339844 264.890625 203.339844 C 264.890625 203.339844 264.558594 184.738281 260 177.890625 C 255.429688 171.039062 247.929688 176.261719 247.929688 176.261719 C 247.929688 176.261719 264.570312 160.601562 267.179688 151.789062 C 270.441406 161.25 268.808594 165.171875 268.808594 168.429688 C 268.808594 171.691406 273.378906 179.851562 273.378906 179.851562 L 283.5 162.878906 L 274.691406 163.859375 C 274.691406 163.859375 293.289062 139.058594 283.828125 125.351562 C 293.621094 112.621094 282.519531 101.199219 282.519531 101.199219 L 290.351562 84.230469 C 290.339844 84.238281 268.46875 65.640625 266.191406 58.128906 Z M 266.191406 58.128906 "/>
<path style=" stroke:none;fill-rule:nonzero;fill:rgb(20.392157%,28.627452%,36.862746%);fill-opacity:1;" d="M 342.21875 96.589844 C 342.21875 96.589844 359.109375 95.359375 367.671875 103.441406 C 379.25 114.371094 377.460938 140.371094 364.730469 158.320312 C 371.261719 170.070312 369.621094 175.941406 369.621094 175.941406 L 365.378906 173.660156 C 365.378906 173.660156 367.660156 184.761719 365.378906 191.609375 C 363.101562 198.460938 362.121094 206.949219 362.121094 206.949219 L 372.890625 192.921875 L 378.761719 195.199219 C 378.761719 195.199219 381.699219 167.789062 373.210938 158.648438 C 379.078125 146.25 391.808594 118.839844 375.820312 101.871094 C 369.640625 94.359375 352.988281 90.710938 342.21875 96.589844 Z M 342.21875 96.589844 "/>
<path style=" stroke:none;fill-rule:nonzero;fill:rgb(20.392157%,28.627452%,36.862746%);fill-opacity:1;" d="M 288.378906 269.601562 C 288.378906 269.601562 303.71875 280.699219 303.390625 297.011719 C 318.398438 303.539062 316.441406 328.988281 316.441406 328.988281 C 316.441406 328.988281 329.488281 335.839844 304.691406 347.589844 C 314.808594 355.101562 307.949219 364.890625 290.328125 362.269531 C 283.148438 359.988281 297.179688 349.539062 292.609375 341.378906 C 305.011719 339.75 304.359375 326.371094 296.199219 321.46875 C 288.039062 316.578125 293.261719 304.5 293.261719 304.5 L 284.121094 300.261719 C 284.121094 300.261719 293.578125 296.671875 291.949219 289.488281 C 290.320312 282.308594 287.730469 277.429688 288.378906 269.601562 Z M 288.378906 269.601562 "/>
<path style=" stroke:none;fill-rule:nonzero;fill:rgb(20.392157%,28.627452%,36.862746%);fill-opacity:1;" d="M 224.089844 350.199219 C 224.089844 350.199219 217.890625 367.171875 243.019531 363.25 C 240.410156 377.929688 246.28125 380.871094 257.699219 376.300781 C 254.109375 388.699219 270.429688 379.558594 275.320312 366.179688 C 275.648438 378.910156 282.5 381.519531 293.269531 365.199219 C 285.441406 388.96875 274.671875 385.050781 271.730469 380.210938 C 268.46875 393.261719 253.78125 397.828125 248.558594 384.78125 C 238.441406 389.019531 223.761719 383.148438 229.628906 371.730469 C 219.199219 366.839844 214.628906 363.25 224.089844 350.199219 Z M 224.089844 350.199219 "/>
<path style=" stroke:none;fill-rule:nonzero;fill:rgb(20.392157%,28.627452%,36.862746%);fill-opacity:1;" d="M 238.121094 240.878906 C 238.121094 240.878906 214.300781 237.289062 210.710938 250.339844 C 207.121094 263.390625 223.441406 270.570312 212.019531 285.578125 C 200.601562 300.589844 199.949219 309.398438 199.949219 309.398438 C 199.949219 309.398438 201.910156 303.53125 213.328125 302.550781 C 224.75 301.570312 212.351562 312.671875 211.050781 318.871094 C 209.738281 325.070312 213.988281 336.171875 213.988281 336.171875 C 213.988281 336.171875 218.558594 327.691406 225.738281 324.101562 C 232.921875 320.511719 240.421875 322.46875 247.601562 316.269531 C 234.871094 293.75 246.289062 275.480469 246.289062 275.480469 C 246.289062 275.480469 240.089844 260.800781 242.699219 251.660156 C 245.300781 242.511719 238.121094 240.878906 238.121094 240.878906 Z M 238.121094 240.878906 "/>
<path style=" stroke:none;fill-rule:nonzero;fill:rgb(20.392157%,28.627452%,36.862746%);fill-opacity:1;" d="M 186.890625 308.101562 L 176.769531 319.519531 C 191.53125 322.550781 205.730469 323.230469 219.191406 320.828125 C 219.199219 320.828125 194.070312 318.550781 186.890625 308.101562 Z M 186.890625 308.101562 "/>
<path style=" stroke:none;fill-rule:nonzero;fill:rgb(20.392157%,28.627452%,36.862746%);fill-opacity:1;" d="M 158.820312 295.050781 C 158.820312 295.050781 154.898438 306.800781 144.460938 305.171875 C 134.019531 303.539062 132.058594 282.328125 132.058594 282.328125 C 132.058594 282.328125 133.039062 272.539062 143.160156 269.601562 C 153.28125 266.660156 159.480469 279.058594 159.480469 279.058594 C 159.480469 279.058594 148.710938 272.53125 142.511719 275.800781 C 136.308594 279.058594 136.308594 282 136.960938 287.550781 C 137.609375 293.101562 148.058594 300.929688 158.820312 295.050781 Z M 158.820312 295.050781 "/>
<path style=" stroke:none;fill-rule:nonzero;fill:rgb(20.392157%,28.627452%,36.862746%);fill-opacity:1;" d="M 151.320312 260.460938 C 151.320312 260.460938 171.878906 256.871094 166.980469 278.730469 C 180.03125 266.328125 174.808594 260.460938 170.570312 255.890625 C 166.328125 251.320312 153.929688 253.609375 151.320312 260.460938 Z M 151.320312 260.460938 "/>
<path style=" stroke:none;fill-rule:nonzero;fill:rgb(20.392157%,28.627452%,36.862746%);fill-opacity:1;" d="M 234.210938 178.550781 C 234.210938 178.550781 211.371094 201.070312 216.910156 215.75 C 207.121094 220.640625 203.859375 205.628906 203.859375 205.628906 C 203.859375 205.628906 189.179688 214.769531 172.210938 209.871094 C 155.238281 204.980469 149.691406 210.199219 149.691406 210.199219 L 153.28125 200.738281 C 153.28125 200.738281 117.378906 212.808594 112.488281 206.941406 C 107.601562 201.070312 119.019531 191.601562 119.019531 191.601562 C 119.019531 191.601562 103.03125 197.148438 103.679688 206.28125 C 104.328125 215.421875 112.160156 224.230469 121.949219 221.941406 C 131.738281 219.648438 132.71875 208.558594 140.550781 212.148438 C 148.378906 215.738281 136.308594 221.941406 136.308594 221.941406 C 136.308594 221.941406 150.019531 223.898438 154.261719 220.628906 C 158.5 217.371094 168.941406 215.410156 165.679688 221.609375 C 162.421875 227.808594 158.5 225.851562 158.5 225.851562 C 158.5 225.851562 170.25 233.03125 180.359375 226.828125 C 190.480469 220.628906 199.289062 220.300781 192.109375 230.421875 C 207.121094 233.03125 220.828125 230.75 227.03125 219.648438 C 233.230469 208.550781 236.171875 214.429688 236.171875 214.429688 Z M 234.210938 178.550781 "/>
<path style=" stroke:none;fill-rule:nonzero;fill:rgb(20.392157%,28.627452%,36.862746%);fill-opacity:1;" d="M 113.628906 158.480469 C 113.628906 158.480469 106.121094 174.46875 116.890625 177.730469 C 106.449219 180.351562 96.171875 166.261719 113.628906 158.480469 Z M 113.628906 158.480469 "/>
<path style=" stroke:none;fill-rule:nonzero;fill:rgb(20.392157%,28.627452%,36.862746%);fill-opacity:1;" d="M 152.460938 64.769531 C 159.800781 66.238281 167.46875 75.699219 158.820312 87.179688 C 161.101562 96.320312 153.269531 107.738281 153.269531 107.738281 C 153.269531 107.738281 166.980469 115.898438 164.371094 126.339844 C 175.140625 129.601562 183.300781 148.53125 183.300781 148.53125 C 183.300781 148.53125 193.421875 139.070312 199.289062 136.78125 C 196.03125 130.578125 184.609375 120.789062 172.53125 120.789062 C 176.769531 105.128906 166 101.539062 166 101.539062 C 166 101.539062 170.238281 95.011719 167.308594 89.789062 C 173.179688 80.328125 170.738281 61.828125 152.460938 64.769531 Z M 152.460938 64.769531 "/>
<path style=" stroke:none;fill-rule:nonzero;fill:rgb(20.392157%,28.627452%,36.862746%);fill-opacity:1;" d="M 162.089844 159.621094 C 162.089844 159.621094 173.671875 178 186.730469 177.03125 C 185.421875 167.890625 193.421875 157.339844 193.421875 157.339844 C 193.421875 157.339844 186.238281 153.101562 177.761719 157.988281 C 169.269531 162.890625 162.089844 159.621094 162.089844 159.621094 Z M 162.089844 159.621094 "/>
<path style=" stroke:none;fill-rule:nonzero;fill:rgb(93.725491%,60.392159%,60.392159%);fill-opacity:1;" d="M 186.238281 101.808594 C 186.238281 101.808594 182.140625 107.71875 191.460938 114.050781 C 200.109375 119.921875 215.308594 114.019531 220.179688 111.28125 C 225.050781 108.539062 225.769531 102.078125 217.238281 105.730469 C 208.71875 109.378906 189.769531 113.480469 190.070312 103.738281 C 190.378906 94 186.238281 101.808594 186.238281 101.808594 Z M 186.238281 101.808594 "/>
</g>
</svg>
