<?xml version="1.0" encoding="UTF-8"?>
<svg xmlns="http://www.w3.org/2000/svg" xmlns:xlink="http://www.w3.org/1999/xlink" viewBox="0 0 240 240" width="240px" height="240px">
<g id="surface76783348">
<path style=" stroke:none;fill-rule:nonzero;fill:rgb(49.803922%,54.901963%,100%);fill-opacity:1;" d="M 198.539062 25.226562 C 169.574219 19.578125 141.589844 15.140625 118.164062 15.019531 L 118.164062 15 C 118.003906 15 117.835938 15.011719 117.679688 15.011719 C 117.515625 15.011719 117.34375 15 117.183594 15 L 117.183594 15.019531 C 93.976562 15.140625 66.25 19.578125 37.558594 25.226562 C 33.851562 98.078125 29.710938 184.523438 117.675781 226.863281 C 200.796875 180.261719 203.359375 119.113281 198.539062 25.226562 Z M 198.539062 25.226562 "/>
<path style=" stroke:none;fill-rule:nonzero;fill:rgb(20.392157%,27.058825%,38.82353%);fill-opacity:1;" d="M 37.558594 25.226562 C 36.253906 50.84375 34.921875 78.140625 37.53125 104.613281 L 116.625 104.613281 L 117.410156 226.730469 C 117.503906 226.773438 117.589844 226.824219 117.679688 226.871094 C 175.148438 194.640625 194.101562 156.59375 198.734375 104.449219 L 117.105469 104.449219 L 117.105469 15.023438 C 93.910156 15.15625 66.21875 19.589844 37.558594 25.226562 Z M 37.558594 25.226562 "/>
<path style=" stroke:none;fill-rule:nonzero;fill:rgb(98.039216%,98.039216%,98.039216%);fill-opacity:1;" d="M 56.246094 48.320312 C 56.246094 48.320312 50.535156 49.789062 50.371094 54.355469 C 53.304688 53.375 56.894531 53.699219 56.894531 53.699219 Z M 56.246094 48.320312 "/>
<path style=" stroke:none;fill-rule:nonzero;fill:rgb(98.039216%,98.039216%,98.039216%);fill-opacity:1;" d="M 56.894531 36.085938 C 56.894531 36.085938 61.300781 35.429688 62.929688 37.714844 C 64.558594 35.105469 66.03125 33.800781 66.03125 33.800781 C 66.03125 33.800781 59.503906 30.210938 56.894531 36.085938 Z M 56.894531 36.085938 "/>
<path style=" stroke:none;fill-rule:nonzero;fill:rgb(98.039216%,98.039216%,98.039216%);fill-opacity:1;" d="M 72.394531 29.394531 C 72.394531 29.394531 75.003906 29.230469 75.984375 33.636719 C 78.429688 33.46875 81.203125 33.46875 81.203125 33.46875 C 81.203125 33.46875 80.230469 27.433594 72.394531 29.394531 Z M 72.394531 29.394531 "/>
<path style=" stroke:none;fill-rule:nonzero;fill:rgb(98.039216%,98.039216%,98.039216%);fill-opacity:1;" d="M 57.414062 80.011719 C 57.414062 80.011719 52.011719 76.683594 48.796875 80.945312 C 48.796875 80.945312 52.640625 81.710938 54 83.714844 C 55.324219 81.015625 57.414062 80.011719 57.414062 80.011719 Z M 57.414062 80.011719 "/>
<path style=" stroke:none;fill-rule:nonzero;fill:rgb(98.039216%,98.039216%,98.039216%);fill-opacity:1;" d="M 49.554688 91.148438 C 49.554688 91.148438 45.640625 93.109375 47.433594 98.328125 C 49.230469 95.71875 52.820312 95.394531 52.820312 95.394531 Z M 49.554688 91.148438 "/>
<path style=" stroke:none;fill-rule:nonzero;fill:rgb(98.039216%,98.039216%,98.039216%);fill-opacity:1;" d="M 52.980469 104.285156 C 52.980469 104.285156 49.066406 110.976562 53.144531 113.585938 L 55.589844 109.671875 Z M 52.980469 104.285156 "/>
<path style=" stroke:none;fill-rule:nonzero;fill:rgb(98.039216%,98.039216%,98.039216%);fill-opacity:1;" d="M 77.621094 129.574219 C 77.621094 129.574219 70.441406 127.613281 66.691406 130.878906 L 74.519531 133 Z M 77.621094 129.574219 "/>
<path style=" stroke:none;fill-rule:nonzero;fill:rgb(98.039216%,98.039216%,98.039216%);fill-opacity:1;" d="M 66.359375 142.796875 C 66.359375 142.796875 61.789062 147.199219 64.566406 151.445312 C 65.054688 147.691406 70.113281 146.058594 70.113281 146.058594 Z M 66.359375 142.796875 "/>
<path style=" stroke:none;fill-rule:nonzero;fill:rgb(98.039216%,98.039216%,98.039216%);fill-opacity:1;" d="M 76.476562 155.195312 C 76.476562 155.195312 73.210938 160.746094 77.945312 164.171875 C 77.621094 160.089844 81.210938 156.5 81.210938 156.5 Z M 76.476562 155.195312 "/>
<path style=" stroke:none;fill-rule:nonzero;fill:rgb(98.039216%,98.039216%,98.039216%);fill-opacity:1;" d="M 110.738281 178.691406 C 110.738281 178.691406 103.886719 183.421875 107.148438 188.316406 C 108.945312 185.539062 113.675781 183.253906 113.675781 183.253906 Z M 110.738281 178.691406 "/>
<path style=" stroke:none;fill-rule:nonzero;fill:rgb(98.039216%,98.039216%,98.039216%);fill-opacity:1;" d="M 115.800781 187.828125 C 115.800781 187.828125 110.578125 192.070312 114.171875 196.964844 C 114.824219 194.03125 119.554688 191.089844 119.554688 191.089844 Z M 115.800781 187.828125 "/>
<path style=" stroke:none;fill-rule:nonzero;fill:rgb(98.039216%,98.039216%,98.039216%);fill-opacity:1;" d="M 125.75 194.84375 C 125.75 194.84375 123.304688 199.25 127.871094 203.003906 C 127.378906 197.785156 130.96875 195.175781 130.96875 195.175781 Z M 125.75 194.84375 "/>
<path style=" stroke:none;fill-rule:nonzero;fill:rgb(20.392157%,28.627452%,36.862746%);fill-opacity:1;" d="M 117.765625 229.683594 L 116.59375 229.121094 C 26.878906 185.941406 31.414062 96.753906 35.058594 25.101562 L 35.160156 23.148438 L 37.074219 22.769531 C 60.203125 18.21875 89.710938 13 114.683594 12.550781 L 114.683594 12.523438 L 117.183594 12.503906 L 117.921875 15 L 117.84375 12.503906 L 120.421875 12.429688 L 120.429688 12.546875 C 145.691406 12.964844 175.589844 18.203125 199.015625 22.769531 L 200.933594 23.144531 L 201.035156 25.101562 C 205.933594 120.59375 202.855469 181.976562 118.898438 229.050781 Z M 39.953125 27.304688 C 36.25 100.324219 32.835938 182.484375 117.59375 224.046875 C 197.351562 178.785156 200.78125 119.324219 196.144531 27.304688 C 172.519531 22.738281 142.78125 17.648438 118.148438 17.523438 L 117.195312 17.523438 C 92.804688 17.644531 63.351562 22.734375 39.953125 27.304688 Z M 39.953125 27.304688 "/>
<path style=" stroke:none;fill-rule:nonzero;fill:rgb(20.392157%,28.627452%,36.862746%);fill-opacity:1;" d="M 100.460938 50.414062 L 106.011719 59.796875 C 106.011719 59.796875 120.203125 59.550781 118.328125 51.476562 C 116.449219 43.398438 100.460938 50.414062 100.460938 50.414062 Z M 100.460938 50.414062 "/>
<path style=" stroke:none;fill-rule:nonzero;fill:rgb(92.54902%,94.117647%,94.509804%);fill-opacity:1;" d="M 98.988281 67.738281 C 98.988281 67.738281 90.261719 61.921875 85.691406 60.941406 C 79.898438 56.425781 82.671875 45.710938 82.671875 45.710938 C 82.671875 45.710938 89.683594 33.933594 77.609375 32.464844 C 73.371094 31.484375 72.714844 37.386719 72.714844 37.386719 C 72.714844 37.386719 68.960938 31.835938 63.578125 34.121094 C 58.195312 36.40625 62.925781 44.398438 62.925781 44.398438 C 62.925781 44.398438 55.746094 43.585938 55.585938 50.601562 C 55.421875 57.613281 61.785156 57.941406 61.785156 57.941406 C 61.785156 57.941406 64.886719 52.554688 69.125 57.773438 C 73.363281 62.996094 65.535156 63.484375 65.535156 63.484375 C 65.535156 63.484375 68.144531 67.726562 72.714844 67.566406 C 77.285156 67.398438 78.914062 71.320312 74.511719 71.804688 C 78.425781 79.308594 88.378906 79.609375 88.378906 79.609375 L 83.160156 81.429688 L 93.273438 88.609375 L 90.664062 91.875 C 90.664062 91.875 83.648438 92.691406 78.589844 90.246094 C 73.53125 87.800781 69.453125 91.550781 69.453125 91.550781 C 69.453125 91.550781 68.476562 83.390625 64.558594 82.085938 C 62.601562 75.71875 50.855469 78.984375 52.648438 86.65625 C 48.078125 87.636719 47.511719 96.421875 55.339844 98.050781 C 51.261719 103.925781 52.484375 108.195312 56.074219 110.316406 C 59.664062 112.433594 63.253906 110.480469 64.558594 106.558594 C 65.863281 102.644531 72.71875 107.214844 68.148438 110.964844 C 74.351562 111.945312 75.65625 110.308594 78.105469 108.679688 C 80.550781 107.050781 86.589844 108.191406 80.550781 112.433594 C 87.890625 114.71875 91.480469 114.230469 94.09375 111.453125 C 96.703125 108.679688 100.785156 111.128906 95.234375 114.554688 C 104.210938 115.695312 109.265625 115.210938 112.53125 111.621094 C 111.714844 115.210938 116.933594 118.476562 116.933594 118.476562 C 116.933594 118.476562 99.640625 116.515625 98.011719 125.816406 C 96.378906 135.113281 101.601562 136.421875 102.089844 138.703125 C 102.578125 140.988281 98.988281 141.316406 96.378906 140.5 C 93.769531 139.683594 87.894531 138.214844 84.46875 139.03125 C 88.226562 131.359375 86.101562 125 77.289062 128.585938 C 73.699219 129.890625 73.535156 134.785156 73.535156 134.785156 C 73.535156 134.785156 66.519531 136.089844 67.5 144.25 C 68.480469 152.410156 74.679688 151.921875 74.679688 151.921875 C 74.679688 151.921875 72.71875 157.796875 78.59375 157.953125 C 84.46875 158.121094 83.65625 150.773438 86.753906 151.429688 C 89.855469 152.085938 88.386719 159.75 88.386719 159.75 C 88.386719 159.75 99.480469 161.21875 106.003906 160.566406 C 105.839844 163.175781 106.496094 164.644531 106.496094 164.644531 C 106.496094 164.644531 110.25 156.648438 122.484375 156.324219 C 127.546875 162.691406 126.726562 163.339844 132.109375 164.644531 C 137.496094 165.949219 140.105469 170.03125 135.699219 170.84375 C 131.296875 171.660156 128.359375 180.144531 128.359375 180.144531 C 128.359375 180.144531 121.835938 171.984375 114.980469 173.453125 C 108.125 174.925781 110.25 184.875 114.816406 185.855469 C 114.324219 191.074219 121.828125 192.546875 125.746094 192.21875 C 125.421875 196.789062 131.296875 196.925781 133.414062 193.335938 C 135.535156 189.746094 135.375 189.285156 135.375 189.285156 C 135.375 189.285156 140.191406 194.726562 147.449219 181.289062 C 152.179688 180.308594 149.410156 172.15625 149.410156 172.15625 C 149.410156 172.15625 159.523438 170.035156 154.46875 161.710938 C 149.410156 153.390625 148.269531 140.824219 148.269531 140.824219 C 148.269531 140.824219 150.878906 142.453125 151.203125 136.910156 C 157.730469 138.539062 160.179688 140.011719 164.421875 145.71875 C 168.660156 151.429688 163.605469 154.203125 168.5 159.914062 C 167.683594 163.503906 166.539062 165.464844 166.539062 165.464844 C 166.539062 165.464844 177.960938 161.058594 175.351562 147.84375 C 182.691406 143.273438 191.664062 133.484375 180.734375 118.964844 C 169.804688 104.445312 158.21875 86.003906 162.460938 70.339844 C 166.699219 54.675781 177.144531 57.773438 179.429688 59.570312 C 181.714844 61.363281 184.160156 73.601562 178.613281 77.84375 C 173.066406 82.085938 173.394531 87.960938 173.71875 91.714844 C 174.046875 95.46875 173.394531 98.894531 173.394531 98.894531 C 173.394531 98.894531 176.820312 97.425781 177.964844 93.34375 C 178.289062 99.546875 181.066406 103.460938 181.066406 103.460938 L 185.636719 95.953125 L 188.734375 96.933594 C 188.734375 96.933594 188.898438 84.699219 185.308594 79.148438 C 189.390625 67.238281 194.609375 55 181.070312 48.148438 C 167.523438 41.296875 154.964844 65.933594 153.984375 69.523438 C 153.003906 73.113281 149.089844 92.695312 161.816406 109.011719 C 174.539062 125.324219 180.578125 132.015625 176.824219 135.605469 C 173.070312 139.195312 163.121094 134.464844 157.410156 129.894531 C 156.59375 124.183594 156.269531 118.964844 151.046875 116.023438 C 151.859375 109.335938 145.824219 100.359375 141.253906 95.953125 C 146.316406 89.921875 145.335938 84.695312 144.84375 79.640625 C 146.964844 80.128906 149.414062 81.433594 149.414062 81.433594 L 148.433594 65.933594 C 148.433594 65.933594 155.289062 64.304688 152.351562 56.960938 C 152.351562 56.960938 151.046875 41.949219 149.574219 38.519531 C 153.328125 38.355469 139.949219 30.199219 139.949219 30.199219 L 141.578125 24.816406 C 141.578125 24.816406 131.953125 24.648438 128.855469 22.039062 C 128.53125 26.609375 119.878906 29.054688 119.554688 24.324219 C 117.269531 24.160156 114.335938 24.324219 114.335938 24.324219 C 114.335938 24.324219 116.621094 27.589844 112.703125 29.875 C 108.789062 32.160156 104.386719 34.933594 103.730469 38.035156 C 99.324219 38.523438 98.835938 41.789062 98.835938 41.789062 C 98.835938 41.789062 93.285156 42.113281 96.390625 47.175781 C 99.496094 52.234375 104.875 53.863281 108.140625 49.621094 C 111.566406 48.804688 115.320312 47.824219 116.625 53.535156 C 117.929688 59.246094 104.875 57.941406 104.875 57.941406 C 104.875 57.941406 105.53125 61.363281 110.425781 61.363281 C 115.320312 61.363281 98.988281 67.738281 98.988281 67.738281 Z M 98.988281 67.738281 "/>
<path style=" stroke:none;fill-rule:nonzero;fill:rgb(20.392157%,28.627452%,36.862746%);fill-opacity:1;" d="M 106.660156 41.304688 L 109.105469 42.285156 L 112.371094 41.304688 C 112.371094 41.304688 112.859375 43.75 115.796875 42.933594 C 118.730469 42.121094 117.101562 39.511719 117.101562 39.511719 C 117.101562 39.511719 123.300781 36.898438 125.09375 42.933594 C 126.890625 48.96875 121.996094 50.441406 121.996094 50.441406 C 121.996094 50.441406 123.625 59.414062 116.285156 60.886719 C 108.945312 62.355469 104.863281 57.949219 104.863281 57.949219 C 104.863281 57.949219 106.003906 63.011719 102.421875 67.085938 C 108.128906 69.203125 112.699219 64.964844 112.699219 64.964844 C 112.699219 64.964844 122.164062 64.964844 126.570312 57.625 C 134.398438 61.050781 135.054688 54.199219 131.140625 47.179688 C 134.894531 46.039062 134.894531 45.386719 134.894531 45.386719 C 134.894531 45.386719 131.304688 42.449219 133.265625 38.203125 C 128.535156 38.695312 127.066406 34.289062 127.066406 32.171875 C 121.84375 35.433594 118.253906 34.78125 117.765625 32.335938 C 114.328125 37.058594 106.660156 41.304688 106.660156 41.304688 Z M 106.660156 41.304688 "/>
<path style=" stroke:none;fill-rule:nonzero;fill:rgb(20.392157%,28.627452%,36.862746%);fill-opacity:1;" d="M 133.09375 29.066406 C 133.09375 29.066406 141.414062 26.289062 142.71875 23.84375 C 144.023438 29.71875 143.535156 31.515625 143.535156 31.515625 C 143.535156 31.515625 149.734375 35.269531 154.796875 33.960938 C 157.730469 38.691406 149.574219 38.53125 149.574219 38.53125 C 149.574219 38.53125 154.144531 43.96875 153 51.09375 C 154.550781 55.71875 153.980469 64.148438 149.734375 67.085938 C 148.753906 75.078125 149.980469 82.234375 149.980469 82.234375 L 145.65625 80.304688 C 145.65625 80.304688 148.429688 86.015625 147.125 89.929688 C 145.820312 93.84375 145.003906 94.988281 147.289062 97.433594 C 144.679688 102.65625 149.734375 103.800781 150.878906 108.203125 C 152.019531 112.609375 151.859375 115.710938 151.859375 115.710938 C 151.859375 115.710938 160.511719 120.605469 159.199219 129.738281 C 159.199219 129.738281 170.785156 133.328125 173.886719 141.976562 C 174.863281 144.75 177.640625 141.976562 177.640625 140.015625 C 180.738281 140.828125 182.476562 138.714844 181.71875 132.511719 C 181.054688 127.054688 175.421875 117.148438 169.15625 108.984375 C 164.300781 102.660156 155.941406 87.964844 158.058594 76.703125 C 160.179688 65.445312 168.175781 54.191406 177.640625 56.46875 C 187.105469 58.753906 181.230469 74.554688 181.230469 74.554688 C 181.230469 74.554688 182.859375 59.734375 176.988281 59.40625 C 171.113281 59.078125 163.121094 65.929688 162.628906 77.515625 C 162.140625 89.101562 169.96875 102.15625 173.726562 106.070312 C 177.480469 109.984375 184.65625 117.820312 187.105469 123.199219 C 189.550781 128.585938 187.269531 133.15625 187.269531 133.15625 C 187.269531 133.15625 192.328125 140.824219 184.496094 146.046875 C 185.636719 150.449219 178.460938 151.429688 176.335938 150.125 C 177.476562 155.34375 175.355469 162.035156 171.441406 163.671875 C 173.234375 156.328125 173.398438 152.410156 170.460938 148.660156 C 167.523438 144.90625 165.808594 144.636719 165.808594 148.714844 C 162.054688 142.351562 158.628906 137.863281 151.125 137.375 C 148.351562 131.011719 141.089844 130.875 141.089844 130.875 C 141.089844 130.875 146.476562 121.25 139.785156 116.84375 C 142.71875 110.15625 132.445312 101.671875 132.445312 101.671875 C 132.445312 101.671875 132.28125 92.371094 130 88.945312 C 127.714844 85.519531 123.964844 88.128906 123.964844 88.128906 C 123.964844 88.128906 132.285156 80.300781 133.589844 75.894531 C 135.21875 80.625 134.40625 82.585938 134.40625 84.214844 C 134.40625 85.84375 136.691406 89.925781 136.691406 89.925781 L 141.75 81.441406 L 137.34375 81.929688 C 137.34375 81.929688 146.644531 69.53125 141.914062 62.675781 C 146.808594 56.308594 141.261719 50.601562 141.261719 50.601562 L 145.175781 42.113281 C 145.171875 42.121094 134.234375 32.820312 133.09375 29.066406 Z M 133.09375 29.066406 "/>
<path style=" stroke:none;fill-rule:nonzero;fill:rgb(20.392157%,28.627452%,36.862746%);fill-opacity:1;" d="M 171.109375 48.296875 C 171.109375 48.296875 179.554688 47.679688 183.835938 51.71875 C 189.625 57.183594 188.730469 70.183594 182.363281 79.160156 C 185.628906 85.035156 184.808594 87.96875 184.808594 87.96875 L 182.691406 86.828125 C 182.691406 86.828125 183.828125 92.378906 182.691406 95.804688 C 181.550781 99.230469 181.058594 103.476562 181.058594 103.476562 L 186.445312 96.460938 L 189.378906 97.601562 C 189.378906 97.601562 190.851562 83.894531 186.605469 79.324219 C 189.539062 73.125 195.90625 59.421875 187.910156 50.933594 C 184.820312 47.179688 176.496094 45.355469 171.109375 48.296875 Z M 171.109375 48.296875 "/>
<path style=" stroke:none;fill-rule:nonzero;fill:rgb(20.392157%,28.627452%,36.862746%);fill-opacity:1;" d="M 144.191406 134.800781 C 144.191406 134.800781 151.859375 140.351562 151.695312 148.503906 C 159.199219 151.769531 158.21875 164.496094 158.21875 164.496094 C 158.21875 164.496094 164.746094 167.921875 152.34375 173.796875 C 157.40625 177.550781 153.976562 182.445312 145.164062 181.136719 C 141.574219 179.996094 148.589844 174.769531 146.304688 170.691406 C 152.503906 169.875 152.179688 163.183594 148.101562 160.734375 C 144.019531 158.289062 146.628906 152.25 146.628906 152.25 L 142.058594 150.128906 C 142.058594 150.128906 146.789062 148.335938 145.976562 144.746094 C 145.160156 141.15625 143.863281 138.714844 144.191406 134.800781 Z M 144.191406 134.800781 "/>
<path style=" stroke:none;fill-rule:nonzero;fill:rgb(20.392157%,28.627452%,36.862746%);fill-opacity:1;" d="M 112.046875 175.101562 C 112.046875 175.101562 108.945312 183.585938 121.511719 181.625 C 120.203125 188.964844 123.140625 190.433594 128.851562 188.148438 C 127.054688 194.351562 135.214844 189.78125 137.660156 183.089844 C 137.824219 189.453125 141.25 190.761719 146.636719 182.601562 C 142.71875 194.484375 137.335938 192.523438 135.863281 190.105469 C 134.234375 196.628906 126.890625 198.914062 124.28125 192.390625 C 119.21875 194.511719 111.878906 191.574219 114.816406 185.863281 C 109.601562 183.421875 107.316406 181.625 112.046875 175.101562 Z M 112.046875 175.101562 "/>
<path style=" stroke:none;fill-rule:nonzero;fill:rgb(20.392157%,28.627452%,36.862746%);fill-opacity:1;" d="M 119.058594 120.441406 C 119.058594 120.441406 107.148438 118.644531 105.355469 125.171875 C 103.558594 131.695312 111.71875 135.285156 106.011719 142.789062 C 100.300781 150.296875 99.976562 154.699219 99.976562 154.699219 C 99.976562 154.699219 100.953125 151.765625 106.664062 151.273438 C 112.375 150.785156 106.175781 156.335938 105.523438 159.433594 C 104.871094 162.535156 106.996094 168.085938 106.996094 168.085938 C 106.996094 168.085938 109.28125 163.84375 112.871094 162.050781 C 116.460938 160.253906 120.210938 161.234375 123.800781 158.136719 C 117.433594 146.875 123.144531 137.738281 123.144531 137.738281 C 123.144531 137.738281 120.046875 130.398438 121.351562 125.828125 C 122.648438 121.253906 119.058594 120.441406 119.058594 120.441406 Z M 119.058594 120.441406 "/>
<path style=" stroke:none;fill-rule:nonzero;fill:rgb(20.392157%,28.627452%,36.862746%);fill-opacity:1;" d="M 93.445312 154.050781 L 88.386719 159.761719 C 95.765625 161.273438 102.863281 161.613281 109.59375 160.414062 C 109.601562 160.414062 97.035156 159.273438 93.445312 154.050781 Z M 93.445312 154.050781 "/>
<path style=" stroke:none;fill-rule:nonzero;fill:rgb(20.392157%,28.627452%,36.862746%);fill-opacity:1;" d="M 79.410156 147.523438 C 79.410156 147.523438 77.449219 153.398438 72.230469 152.585938 C 67.011719 151.769531 66.03125 141.164062 66.03125 141.164062 C 66.03125 141.164062 66.519531 136.269531 71.578125 134.800781 C 76.640625 133.328125 79.738281 139.53125 79.738281 139.53125 C 79.738281 139.53125 74.355469 136.265625 71.253906 137.898438 C 68.15625 139.53125 68.15625 141 68.480469 143.773438 C 68.804688 146.550781 74.03125 150.464844 79.410156 147.523438 Z M 79.410156 147.523438 "/>
<path style=" stroke:none;fill-rule:nonzero;fill:rgb(20.392157%,28.627452%,36.862746%);fill-opacity:1;" d="M 75.660156 130.230469 C 75.660156 130.230469 85.941406 128.433594 83.488281 139.363281 C 90.015625 133.164062 87.40625 130.230469 85.285156 127.945312 C 83.164062 125.660156 76.964844 126.804688 75.660156 130.230469 Z M 75.660156 130.230469 "/>
<path style=" stroke:none;fill-rule:nonzero;fill:rgb(20.392157%,28.627452%,36.862746%);fill-opacity:1;" d="M 117.105469 89.273438 C 117.105469 89.273438 105.683594 100.535156 108.453125 107.875 C 103.558594 110.320312 101.929688 102.816406 101.929688 102.816406 C 101.929688 102.816406 94.589844 107.386719 86.105469 104.933594 C 77.621094 102.488281 74.84375 105.101562 74.84375 105.101562 L 76.640625 100.371094 C 76.640625 100.371094 58.691406 106.40625 56.246094 103.46875 C 53.800781 100.535156 59.511719 95.800781 59.511719 95.800781 C 59.511719 95.800781 51.515625 98.574219 51.839844 103.140625 C 52.164062 107.710938 56.078125 112.113281 60.976562 110.96875 C 65.871094 109.824219 66.359375 104.28125 70.273438 106.074219 C 74.191406 107.871094 68.15625 110.96875 68.15625 110.96875 C 68.15625 110.96875 75.011719 111.949219 77.128906 110.316406 C 79.25 108.683594 84.46875 107.703125 82.839844 110.804688 C 81.210938 113.90625 79.25 112.925781 79.25 112.925781 C 79.25 112.925781 85.125 116.515625 90.179688 113.414062 C 95.238281 110.316406 99.644531 110.148438 96.054688 115.210938 C 103.558594 116.515625 110.414062 115.375 113.515625 109.824219 C 116.613281 104.273438 118.085938 107.214844 118.085938 107.214844 Z M 117.105469 89.273438 "/>
<path style=" stroke:none;fill-rule:nonzero;fill:rgb(20.392157%,28.627452%,36.862746%);fill-opacity:1;" d="M 56.816406 79.238281 C 56.816406 79.238281 53.058594 87.234375 58.445312 88.863281 C 53.226562 90.175781 48.085938 83.128906 56.816406 79.238281 Z M 56.816406 79.238281 "/>
<path style=" stroke:none;fill-rule:nonzero;fill:rgb(20.392157%,28.627452%,36.862746%);fill-opacity:1;" d="M 76.230469 32.386719 C 79.898438 33.121094 83.734375 37.851562 79.410156 43.589844 C 80.550781 48.160156 76.636719 53.871094 76.636719 53.871094 C 76.636719 53.871094 83.488281 57.949219 82.183594 63.171875 C 87.570312 64.800781 91.648438 74.265625 91.648438 74.265625 C 91.648438 74.265625 96.710938 69.535156 99.644531 68.390625 C 98.015625 65.289062 92.304688 60.394531 86.265625 60.394531 C 88.386719 52.566406 83 50.769531 83 50.769531 C 83 50.769531 85.121094 47.503906 83.65625 44.894531 C 86.589844 40.164062 85.371094 30.914062 76.230469 32.386719 Z M 76.230469 32.386719 "/>
<path style=" stroke:none;fill-rule:nonzero;fill:rgb(20.392157%,28.627452%,36.862746%);fill-opacity:1;" d="M 81.046875 79.808594 C 81.046875 79.808594 86.835938 89 93.363281 88.515625 C 92.710938 83.945312 96.710938 78.671875 96.710938 78.671875 C 96.710938 78.671875 93.121094 76.550781 88.878906 78.996094 C 84.636719 81.445312 81.046875 79.808594 81.046875 79.808594 Z M 81.046875 79.808594 "/>
<path style=" stroke:none;fill-rule:nonzero;fill:rgb(93.725491%,60.392159%,60.392159%);fill-opacity:1;" d="M 93.121094 50.90625 C 93.121094 50.90625 91.070312 53.859375 95.730469 57.023438 C 100.054688 59.960938 107.65625 57.011719 110.089844 55.640625 C 112.523438 54.269531 112.886719 51.039062 108.621094 52.863281 C 104.359375 54.691406 94.886719 56.738281 95.035156 51.871094 C 95.191406 47 93.121094 50.90625 93.121094 50.90625 Z M 93.121094 50.90625 "/>
</g>
</svg>
