<?xml version="1.0" encoding="UTF-8"?>
<svg xmlns="http://www.w3.org/2000/svg" xmlns:xlink="http://www.w3.org/1999/xlink" viewBox="0 0 144 144" width="144px" height="144px">
<g id="surface76783360">
<path style=" stroke:none;fill-rule:nonzero;fill:rgb(49.803922%,54.901963%,100%);fill-opacity:1;" d="M 119.125 15.136719 C 101.746094 11.746094 84.953125 9.085938 70.898438 9.011719 L 70.898438 9 C 70.804688 9 70.699219 9.007812 70.609375 9.007812 C 70.507812 9.007812 70.40625 9 70.3125 9 L 70.3125 9.011719 C 56.386719 9.085938 39.75 11.746094 22.535156 15.136719 C 20.308594 58.847656 17.824219 110.714844 70.605469 136.117188 C 120.476562 108.15625 122.015625 71.46875 119.125 15.136719 Z M 119.125 15.136719 "/>
<path style=" stroke:none;fill-rule:nonzero;fill:rgb(20.392157%,27.058825%,38.82353%);fill-opacity:1;" d="M 22.535156 15.136719 C 21.753906 30.507812 20.953125 46.882812 22.519531 62.769531 L 69.976562 62.769531 L 70.445312 136.039062 C 70.503906 136.066406 70.554688 136.09375 70.609375 136.121094 C 105.089844 116.785156 116.460938 93.957031 119.242188 62.671875 L 70.261719 62.671875 L 70.261719 9.015625 C 56.347656 9.09375 39.730469 11.753906 22.535156 15.136719 Z M 22.535156 15.136719 "/>
<path style=" stroke:none;fill-rule:nonzero;fill:rgb(98.039216%,98.039216%,98.039216%);fill-opacity:1;" d="M 33.746094 28.992188 C 33.746094 28.992188 30.320312 29.875 30.222656 32.613281 C 31.984375 32.023438 34.136719 32.21875 34.136719 32.21875 Z M 33.746094 28.992188 "/>
<path style=" stroke:none;fill-rule:nonzero;fill:rgb(98.039216%,98.039216%,98.039216%);fill-opacity:1;" d="M 34.136719 21.652344 C 34.136719 21.652344 36.78125 21.257812 37.757812 22.628906 C 38.734375 21.0625 39.617188 20.28125 39.617188 20.28125 C 39.617188 20.28125 35.703125 18.125 34.136719 21.652344 Z M 34.136719 21.652344 "/>
<path style=" stroke:none;fill-rule:nonzero;fill:rgb(98.039216%,98.039216%,98.039216%);fill-opacity:1;" d="M 43.4375 17.636719 C 43.4375 17.636719 45.003906 17.539062 45.589844 20.179688 C 47.058594 20.082031 48.722656 20.082031 48.722656 20.082031 C 48.722656 20.082031 48.136719 16.460938 43.4375 17.636719 Z M 43.4375 17.636719 "/>
<path style=" stroke:none;fill-rule:nonzero;fill:rgb(98.039216%,98.039216%,98.039216%);fill-opacity:1;" d="M 34.449219 48.007812 C 34.449219 48.007812 31.207031 46.011719 29.277344 48.566406 C 29.277344 48.566406 31.585938 49.027344 32.398438 50.230469 C 33.195312 48.609375 34.449219 48.007812 34.449219 48.007812 Z M 34.449219 48.007812 "/>
<path style=" stroke:none;fill-rule:nonzero;fill:rgb(98.039216%,98.039216%,98.039216%);fill-opacity:1;" d="M 29.734375 54.691406 C 29.734375 54.691406 27.382812 55.867188 28.460938 58.996094 C 29.539062 57.433594 31.691406 57.238281 31.691406 57.238281 Z M 29.734375 54.691406 "/>
<path style=" stroke:none;fill-rule:nonzero;fill:rgb(98.039216%,98.039216%,98.039216%);fill-opacity:1;" d="M 31.789062 62.570312 C 31.789062 62.570312 29.4375 66.585938 31.886719 68.152344 L 33.355469 65.800781 Z M 31.789062 62.570312 "/>
<path style=" stroke:none;fill-rule:nonzero;fill:rgb(98.039216%,98.039216%,98.039216%);fill-opacity:1;" d="M 46.570312 77.746094 C 46.570312 77.746094 42.265625 76.570312 40.015625 78.527344 L 44.710938 79.800781 Z M 46.570312 77.746094 "/>
<path style=" stroke:none;fill-rule:nonzero;fill:rgb(98.039216%,98.039216%,98.039216%);fill-opacity:1;" d="M 39.816406 85.675781 C 39.816406 85.675781 37.074219 88.320312 38.738281 90.867188 C 39.03125 88.613281 42.070312 87.636719 42.070312 87.636719 Z M 39.816406 85.675781 "/>
<path style=" stroke:none;fill-rule:nonzero;fill:rgb(98.039216%,98.039216%,98.039216%);fill-opacity:1;" d="M 45.886719 93.117188 C 45.886719 93.117188 43.925781 96.445312 46.765625 98.503906 C 46.570312 96.054688 48.726562 93.898438 48.726562 93.898438 Z M 45.886719 93.117188 "/>
<path style=" stroke:none;fill-rule:nonzero;fill:rgb(98.039216%,98.039216%,98.039216%);fill-opacity:1;" d="M 66.445312 107.214844 C 66.445312 107.214844 62.332031 110.050781 64.289062 112.988281 C 65.367188 111.324219 68.203125 109.953125 68.203125 109.953125 Z M 66.445312 107.214844 "/>
<path style=" stroke:none;fill-rule:nonzero;fill:rgb(98.039216%,98.039216%,98.039216%);fill-opacity:1;" d="M 69.480469 112.699219 C 69.480469 112.699219 66.347656 115.242188 68.503906 118.179688 C 68.894531 116.417969 71.734375 114.652344 71.734375 114.652344 Z M 69.480469 112.699219 "/>
<path style=" stroke:none;fill-rule:nonzero;fill:rgb(98.039216%,98.039216%,98.039216%);fill-opacity:1;" d="M 75.449219 116.90625 C 75.449219 116.90625 73.984375 119.550781 76.722656 121.804688 C 76.429688 118.671875 78.582031 117.105469 78.582031 117.105469 Z M 75.449219 116.90625 "/>
<path style=" stroke:none;fill-rule:nonzero;fill:rgb(20.392157%,28.627452%,36.862746%);fill-opacity:1;" d="M 70.660156 137.8125 L 69.957031 137.472656 C 16.128906 111.5625 18.847656 58.054688 21.035156 15.058594 L 21.097656 13.890625 L 22.246094 13.660156 C 36.121094 10.933594 53.824219 7.800781 68.8125 7.53125 L 68.8125 7.515625 L 70.3125 7.503906 L 70.753906 9 L 70.707031 7.503906 L 72.253906 7.457031 L 72.257812 7.527344 C 87.414062 7.777344 105.355469 10.921875 119.410156 13.660156 L 120.5625 13.886719 L 120.621094 15.058594 C 123.5625 72.355469 121.714844 109.183594 71.339844 137.429688 Z M 23.972656 16.382812 C 21.75 60.195312 19.699219 109.492188 70.558594 134.425781 C 118.410156 107.269531 120.46875 71.59375 117.6875 16.382812 C 103.511719 13.644531 85.667969 10.589844 70.890625 10.515625 L 70.316406 10.515625 C 55.683594 10.585938 38.011719 13.640625 23.972656 16.382812 Z M 23.972656 16.382812 "/>
<path style=" stroke:none;fill-rule:nonzero;fill:rgb(20.392157%,28.627452%,36.862746%);fill-opacity:1;" d="M 60.277344 30.25 L 63.605469 35.878906 C 63.605469 35.878906 72.121094 35.730469 70.996094 30.886719 C 69.871094 26.039062 60.277344 30.25 60.277344 30.25 Z M 60.277344 30.25 "/>
<path style=" stroke:none;fill-rule:nonzero;fill:rgb(92.54902%,94.117647%,94.509804%);fill-opacity:1;" d="M 59.394531 40.644531 C 59.394531 40.644531 54.15625 37.152344 51.414062 36.5625 C 47.941406 33.855469 49.601562 27.425781 49.601562 27.425781 C 49.601562 27.425781 53.8125 20.359375 46.566406 19.480469 C 44.023438 18.890625 43.628906 22.429688 43.628906 22.429688 C 43.628906 22.429688 41.375 19.101562 38.148438 20.472656 C 34.917969 21.84375 37.753906 26.640625 37.753906 26.640625 C 37.753906 26.640625 33.445312 26.152344 33.351562 30.359375 C 33.253906 34.570312 37.070312 34.765625 37.070312 34.765625 C 37.070312 34.765625 38.929688 31.53125 41.476562 34.664062 C 44.019531 37.796875 39.320312 38.089844 39.320312 38.089844 C 39.320312 38.089844 40.886719 40.636719 43.628906 40.539062 C 46.371094 40.441406 47.347656 42.792969 44.707031 43.082031 C 47.054688 47.585938 53.027344 47.765625 53.027344 47.765625 L 49.894531 48.859375 L 55.964844 53.164062 L 54.398438 55.125 C 54.398438 55.125 50.191406 55.613281 47.152344 54.148438 C 44.117188 52.679688 41.671875 54.929688 41.671875 54.929688 C 41.671875 54.929688 41.085938 50.035156 38.734375 49.25 C 37.558594 45.433594 30.511719 47.390625 31.589844 51.992188 C 28.847656 52.582031 28.507812 57.851562 33.203125 58.828125 C 30.757812 62.355469 31.492188 64.917969 33.644531 66.1875 C 35.800781 67.460938 37.953125 66.289062 38.734375 63.9375 C 39.519531 61.585938 43.632812 64.328125 40.890625 66.578125 C 44.609375 67.167969 45.394531 66.1875 46.863281 65.207031 C 48.328125 64.230469 51.953125 64.914062 48.328125 67.460938 C 52.734375 68.832031 54.886719 68.539062 56.457031 66.871094 C 58.023438 65.207031 60.472656 66.679688 57.140625 68.734375 C 62.527344 69.417969 65.558594 69.125 67.519531 66.972656 C 67.027344 69.125 70.160156 71.085938 70.160156 71.085938 C 70.160156 71.085938 59.785156 69.910156 58.804688 75.488281 C 57.828125 81.070312 60.960938 81.851562 61.253906 83.222656 C 61.546875 84.59375 59.394531 84.789062 57.828125 84.300781 C 56.261719 83.8125 52.738281 82.929688 50.683594 83.417969 C 52.933594 78.816406 51.660156 75 46.375 77.152344 C 44.21875 77.933594 44.121094 80.871094 44.121094 80.871094 C 44.121094 80.871094 39.910156 81.652344 40.5 86.550781 C 41.089844 91.445312 44.808594 91.152344 44.808594 91.152344 C 44.808594 91.152344 43.632812 94.675781 47.15625 94.773438 C 50.683594 94.871094 50.191406 90.464844 52.054688 90.859375 C 53.914062 91.25 53.03125 95.851562 53.03125 95.851562 C 53.03125 95.851562 59.6875 96.730469 63.601562 96.339844 C 63.503906 97.90625 63.898438 98.785156 63.898438 98.785156 C 63.898438 98.785156 66.148438 93.988281 73.492188 93.796875 C 76.527344 97.613281 76.035156 98.003906 79.265625 98.785156 C 82.496094 99.570312 84.0625 102.019531 81.421875 102.507812 C 78.777344 102.996094 77.015625 108.085938 77.015625 108.085938 C 77.015625 108.085938 73.101562 103.191406 68.988281 104.074219 C 64.875 104.953125 66.148438 110.925781 68.890625 111.511719 C 68.59375 114.644531 73.097656 115.527344 75.445312 115.332031 C 75.253906 118.074219 78.777344 118.15625 80.050781 116 C 81.320312 113.847656 81.226562 113.570312 81.226562 113.570312 C 81.226562 113.570312 84.113281 116.835938 88.46875 108.773438 C 91.308594 108.1875 89.644531 103.292969 89.644531 103.292969 C 89.644531 103.292969 95.714844 102.019531 92.683594 97.027344 C 89.644531 92.035156 88.960938 84.496094 88.960938 84.496094 C 88.960938 84.496094 90.527344 85.472656 90.722656 82.144531 C 94.636719 83.125 96.109375 84.007812 98.652344 87.433594 C 101.195312 90.859375 98.164062 92.523438 101.101562 95.949219 C 100.609375 98.101562 99.925781 99.277344 99.925781 99.277344 C 99.925781 99.277344 106.777344 96.636719 105.210938 88.707031 C 109.613281 85.964844 115 80.089844 108.441406 71.378906 C 101.882812 62.667969 94.933594 51.601562 97.476562 42.203125 C 100.019531 32.804688 106.285156 34.664062 107.65625 35.742188 C 109.027344 36.820312 110.496094 44.160156 107.167969 46.707031 C 103.839844 49.25 104.035156 52.777344 104.230469 55.027344 C 104.425781 57.28125 104.035156 59.335938 104.035156 59.335938 C 104.035156 59.335938 106.09375 58.453125 106.777344 56.007812 C 106.972656 59.726562 108.640625 62.074219 108.640625 62.074219 L 111.382812 57.574219 L 113.242188 58.160156 C 113.242188 58.160156 113.339844 50.820312 111.1875 47.488281 C 113.632812 40.34375 116.765625 33 108.640625 28.890625 C 100.515625 24.777344 92.980469 39.5625 92.390625 41.714844 C 91.804688 43.867188 89.453125 55.617188 97.089844 65.40625 C 104.722656 75.195312 108.347656 79.210938 106.09375 81.363281 C 103.84375 83.515625 97.871094 80.679688 94.445312 77.9375 C 93.957031 74.511719 93.761719 71.378906 90.628906 69.613281 C 91.117188 65.601562 87.496094 60.214844 84.753906 57.574219 C 87.789062 53.953125 87.199219 50.816406 86.90625 47.785156 C 88.179688 48.078125 89.648438 48.859375 89.648438 48.859375 L 89.0625 39.5625 C 89.0625 39.5625 93.175781 38.582031 91.410156 34.175781 C 91.410156 34.175781 90.628906 25.171875 89.746094 23.113281 C 91.996094 23.011719 83.96875 18.121094 83.96875 18.121094 L 84.949219 14.890625 C 84.949219 14.890625 79.171875 14.789062 77.3125 13.222656 C 77.117188 15.964844 71.929688 17.433594 71.734375 14.59375 C 70.363281 14.496094 68.601562 14.59375 68.601562 14.59375 C 68.601562 14.59375 69.972656 16.554688 67.621094 17.925781 C 65.273438 19.296875 62.632812 20.960938 62.238281 22.820312 C 59.59375 23.113281 59.300781 25.074219 59.300781 25.074219 C 59.300781 25.074219 55.972656 25.269531 57.835938 28.304688 C 59.695312 31.339844 62.925781 32.320312 64.882812 29.773438 C 66.9375 29.28125 69.191406 28.695312 69.976562 32.121094 C 70.757812 35.546875 62.925781 34.765625 62.925781 34.765625 C 62.925781 34.765625 63.316406 36.820312 66.253906 36.820312 C 69.191406 36.820312 59.394531 40.644531 59.394531 40.644531 Z M 59.394531 40.644531 "/>
<path style=" stroke:none;fill-rule:nonzero;fill:rgb(20.392157%,28.627452%,36.862746%);fill-opacity:1;" d="M 63.996094 24.78125 L 65.464844 25.371094 L 67.421875 24.78125 C 67.421875 24.78125 67.714844 26.25 69.476562 25.761719 C 71.238281 25.273438 70.261719 23.707031 70.261719 23.707031 C 70.261719 23.707031 73.980469 22.140625 75.058594 25.761719 C 76.132812 29.382812 73.195312 30.265625 73.195312 30.265625 C 73.195312 30.265625 74.175781 35.648438 69.769531 36.53125 C 65.367188 37.414062 62.917969 34.769531 62.917969 34.769531 C 62.917969 34.769531 63.601562 37.804688 61.453125 40.25 C 64.878906 41.523438 67.621094 38.980469 67.621094 38.980469 C 67.621094 38.980469 73.300781 38.980469 75.941406 34.574219 C 80.640625 36.628906 81.03125 32.519531 78.683594 28.308594 C 80.9375 27.625 80.9375 27.230469 80.9375 27.230469 C 80.9375 27.230469 78.78125 25.46875 79.960938 22.921875 C 77.121094 23.21875 76.238281 20.574219 76.238281 19.300781 C 73.105469 21.261719 70.953125 20.867188 70.660156 19.402344 C 68.597656 22.234375 63.996094 24.78125 63.996094 24.78125 Z M 63.996094 24.78125 "/>
<path style=" stroke:none;fill-rule:nonzero;fill:rgb(20.392157%,28.627452%,36.862746%);fill-opacity:1;" d="M 79.855469 17.4375 C 79.855469 17.4375 84.847656 15.773438 85.632812 14.308594 C 86.414062 17.832031 86.121094 18.910156 86.121094 18.910156 C 86.121094 18.910156 89.839844 21.160156 92.878906 20.375 C 94.636719 23.214844 89.746094 23.117188 89.746094 23.117188 C 89.746094 23.117188 92.488281 26.382812 91.800781 30.65625 C 92.730469 33.433594 92.386719 38.488281 89.839844 40.25 C 89.253906 45.046875 89.988281 49.339844 89.988281 49.339844 L 87.394531 48.183594 C 87.394531 48.183594 89.058594 51.609375 88.273438 53.957031 C 87.492188 56.308594 87.003906 56.992188 88.375 58.460938 C 86.808594 61.59375 89.839844 62.28125 90.527344 64.921875 C 91.210938 67.566406 91.117188 69.425781 91.117188 69.425781 C 91.117188 69.425781 96.304688 72.363281 95.519531 77.84375 C 95.519531 77.84375 102.472656 79.996094 104.332031 85.183594 C 104.917969 86.851562 106.585938 85.183594 106.585938 84.007812 C 108.445312 84.496094 109.484375 83.230469 109.03125 79.507812 C 108.632812 76.234375 105.253906 70.289062 101.492188 65.390625 C 98.578125 61.597656 93.5625 52.777344 94.835938 46.023438 C 96.109375 39.265625 100.90625 32.515625 106.582031 33.882812 C 112.261719 35.253906 108.738281 44.734375 108.738281 44.734375 C 108.738281 44.734375 109.714844 35.839844 106.195312 35.644531 C 102.667969 35.449219 97.871094 39.558594 97.578125 46.507812 C 97.285156 53.460938 101.980469 61.292969 104.234375 63.640625 C 106.488281 65.992188 110.792969 70.691406 112.261719 73.921875 C 113.730469 77.152344 112.363281 79.894531 112.363281 79.894531 C 112.363281 79.894531 115.398438 84.496094 110.695312 87.628906 C 111.382812 90.269531 107.074219 90.859375 105.800781 90.074219 C 106.484375 93.207031 105.214844 97.222656 102.863281 98.203125 C 103.941406 93.796875 104.039062 91.445312 102.277344 89.195312 C 100.515625 86.941406 99.484375 86.78125 99.484375 89.230469 C 97.234375 85.410156 95.179688 82.71875 90.675781 82.425781 C 89.011719 78.605469 84.652344 78.523438 84.652344 78.523438 C 84.652344 78.523438 87.886719 72.75 83.871094 70.105469 C 85.632812 66.09375 79.46875 61.003906 79.46875 61.003906 C 79.46875 61.003906 79.367188 55.421875 78 53.367188 C 76.628906 51.3125 74.378906 52.878906 74.378906 52.878906 C 74.378906 52.878906 79.371094 48.179688 80.152344 45.535156 C 81.132812 48.375 80.644531 49.550781 80.644531 50.527344 C 80.644531 51.507812 82.015625 53.953125 82.015625 53.953125 L 85.050781 48.863281 L 82.40625 49.15625 C 82.40625 49.15625 87.988281 41.71875 85.148438 37.605469 C 88.085938 33.785156 84.757812 30.359375 84.757812 30.359375 L 87.105469 25.269531 C 87.101562 25.273438 80.539062 19.691406 79.855469 17.4375 Z M 79.855469 17.4375 "/>
<path style=" stroke:none;fill-rule:nonzero;fill:rgb(20.392157%,28.627452%,36.862746%);fill-opacity:1;" d="M 102.664062 28.976562 C 102.664062 28.976562 107.734375 28.609375 110.300781 31.03125 C 113.773438 34.3125 113.238281 42.109375 109.417969 47.496094 C 111.378906 51.019531 110.886719 52.78125 110.886719 52.78125 L 109.613281 52.097656 C 109.613281 52.097656 110.296875 55.429688 109.613281 57.484375 C 108.929688 59.539062 108.636719 62.085938 108.636719 62.085938 L 111.867188 57.875 L 113.628906 58.558594 C 113.628906 58.558594 114.511719 50.335938 111.964844 47.59375 C 113.722656 43.875 117.542969 35.652344 112.746094 30.5625 C 110.890625 28.308594 105.898438 27.214844 102.664062 28.976562 Z M 102.664062 28.976562 "/>
<path style=" stroke:none;fill-rule:nonzero;fill:rgb(20.392157%,28.627452%,36.862746%);fill-opacity:1;" d="M 86.515625 80.878906 C 86.515625 80.878906 91.117188 84.210938 91.015625 89.101562 C 95.519531 91.0625 94.933594 98.695312 94.933594 98.695312 C 94.933594 98.695312 98.847656 100.753906 91.40625 104.277344 C 94.441406 106.53125 92.386719 109.46875 87.097656 108.679688 C 84.945312 107.996094 89.152344 104.863281 87.78125 102.414062 C 91.503906 101.925781 91.308594 97.910156 88.859375 96.441406 C 86.410156 94.972656 87.976562 91.351562 87.976562 91.351562 L 85.234375 90.078125 C 85.234375 90.078125 88.074219 89 87.585938 86.847656 C 87.097656 84.691406 86.320312 83.230469 86.515625 80.878906 Z M 86.515625 80.878906 "/>
<path style=" stroke:none;fill-rule:nonzero;fill:rgb(20.392157%,28.627452%,36.862746%);fill-opacity:1;" d="M 67.226562 105.058594 C 67.226562 105.058594 65.367188 110.152344 72.90625 108.976562 C 72.121094 113.378906 73.882812 114.261719 77.308594 112.890625 C 76.234375 116.609375 81.128906 113.867188 82.597656 109.855469 C 82.695312 113.671875 84.75 114.457031 87.980469 109.558594 C 85.632812 116.691406 82.402344 115.515625 81.519531 114.0625 C 80.539062 117.976562 76.132812 119.347656 74.566406 115.433594 C 71.53125 116.707031 67.128906 114.945312 68.890625 111.519531 C 65.761719 110.050781 64.390625 108.976562 67.226562 105.058594 Z M 67.226562 105.058594 "/>
<path style=" stroke:none;fill-rule:nonzero;fill:rgb(20.392157%,28.627452%,36.862746%);fill-opacity:1;" d="M 71.4375 72.265625 C 71.4375 72.265625 64.289062 71.1875 63.214844 75.101562 C 62.136719 79.015625 67.03125 81.171875 63.605469 85.675781 C 60.179688 90.175781 59.984375 92.820312 59.984375 92.820312 C 59.984375 92.820312 60.574219 91.058594 64 90.765625 C 67.425781 90.472656 63.703125 93.800781 63.316406 95.660156 C 62.921875 97.519531 64.195312 100.851562 64.195312 100.851562 C 64.195312 100.851562 65.566406 98.308594 67.722656 97.230469 C 69.875 96.152344 72.125 96.742188 74.28125 94.882812 C 70.460938 88.125 73.886719 82.644531 73.886719 82.644531 C 73.886719 82.644531 72.027344 78.238281 72.808594 75.496094 C 73.589844 72.753906 71.4375 72.265625 71.4375 72.265625 Z M 71.4375 72.265625 "/>
<path style=" stroke:none;fill-rule:nonzero;fill:rgb(20.392157%,28.627452%,36.862746%);fill-opacity:1;" d="M 56.066406 92.429688 L 53.03125 95.855469 C 57.460938 96.765625 61.71875 96.96875 65.757812 96.25 C 65.761719 96.25 58.222656 95.566406 56.066406 92.429688 Z M 56.066406 92.429688 "/>
<path style=" stroke:none;fill-rule:nonzero;fill:rgb(20.392157%,28.627452%,36.862746%);fill-opacity:1;" d="M 47.644531 88.515625 C 47.644531 88.515625 46.46875 92.039062 43.339844 91.550781 C 40.207031 91.0625 39.617188 84.699219 39.617188 84.699219 C 39.617188 84.699219 39.910156 81.761719 42.949219 80.878906 C 45.984375 79.996094 47.84375 83.71875 47.84375 83.71875 C 47.84375 83.71875 44.613281 81.757812 42.753906 82.738281 C 40.894531 83.71875 40.894531 84.601562 41.089844 86.265625 C 41.28125 87.929688 44.417969 90.277344 47.644531 88.515625 Z M 47.644531 88.515625 "/>
<path style=" stroke:none;fill-rule:nonzero;fill:rgb(20.392157%,28.627452%,36.862746%);fill-opacity:1;" d="M 45.394531 78.136719 C 45.394531 78.136719 51.5625 77.0625 50.09375 83.617188 C 54.007812 79.898438 52.441406 78.136719 51.171875 76.765625 C 49.898438 75.394531 46.179688 76.082031 45.394531 78.136719 Z M 45.394531 78.136719 "/>
<path style=" stroke:none;fill-rule:nonzero;fill:rgb(20.392157%,28.627452%,36.862746%);fill-opacity:1;" d="M 70.261719 53.566406 C 70.261719 53.566406 63.410156 60.320312 65.074219 64.726562 C 62.136719 66.191406 61.15625 61.6875 61.15625 61.6875 C 61.15625 61.6875 56.753906 64.429688 51.664062 62.960938 C 46.570312 61.492188 44.90625 63.058594 44.90625 63.058594 L 45.984375 60.222656 C 45.984375 60.222656 35.214844 63.84375 33.746094 62.082031 C 32.28125 60.320312 35.707031 57.480469 35.707031 57.480469 C 35.707031 57.480469 30.910156 59.144531 31.105469 61.882812 C 31.300781 64.625 33.648438 67.269531 36.585938 66.582031 C 39.523438 65.894531 39.816406 62.566406 42.164062 63.644531 C 44.515625 64.722656 40.894531 66.582031 40.894531 66.582031 C 40.894531 66.582031 45.007812 67.171875 46.277344 66.1875 C 47.550781 65.210938 50.683594 64.621094 49.703125 66.484375 C 48.726562 68.34375 47.550781 67.753906 47.550781 67.753906 C 47.550781 67.753906 51.074219 69.910156 54.109375 68.050781 C 57.144531 66.1875 59.785156 66.089844 57.632812 69.125 C 62.136719 69.910156 66.25 69.226562 68.109375 65.894531 C 69.96875 62.566406 70.851562 64.328125 70.851562 64.328125 Z M 70.261719 53.566406 "/>
<path style=" stroke:none;fill-rule:nonzero;fill:rgb(20.392157%,28.627452%,36.862746%);fill-opacity:1;" d="M 34.089844 47.542969 C 34.089844 47.542969 31.835938 52.339844 35.066406 53.320312 C 31.933594 54.105469 28.851562 49.878906 34.089844 47.542969 Z M 34.089844 47.542969 "/>
<path style=" stroke:none;fill-rule:nonzero;fill:rgb(20.392157%,28.627452%,36.862746%);fill-opacity:1;" d="M 45.738281 19.429688 C 47.941406 19.871094 50.242188 22.710938 47.644531 26.152344 C 48.328125 28.894531 45.980469 32.320312 45.980469 32.320312 C 45.980469 32.320312 50.09375 34.769531 49.3125 37.902344 C 52.542969 38.878906 54.988281 44.558594 54.988281 44.558594 C 54.988281 44.558594 58.027344 41.722656 59.785156 41.035156 C 58.808594 39.175781 55.382812 36.238281 51.757812 36.238281 C 53.03125 31.539062 49.800781 30.460938 49.800781 30.460938 C 49.800781 30.460938 51.070312 28.503906 50.191406 26.9375 C 51.953125 24.097656 51.222656 18.550781 45.738281 19.429688 Z M 45.738281 19.429688 "/>
<path style=" stroke:none;fill-rule:nonzero;fill:rgb(20.392157%,28.627452%,36.862746%);fill-opacity:1;" d="M 48.628906 47.886719 C 48.628906 47.886719 52.101562 53.398438 56.019531 53.109375 C 55.625 50.367188 58.027344 47.203125 58.027344 47.203125 C 58.027344 47.203125 55.871094 45.929688 53.328125 47.398438 C 50.78125 48.867188 48.628906 47.886719 48.628906 47.886719 Z M 48.628906 47.886719 "/>
<path style=" stroke:none;fill-rule:nonzero;fill:rgb(93.725491%,60.392159%,60.392159%);fill-opacity:1;" d="M 55.871094 30.542969 C 55.871094 30.542969 54.640625 32.316406 57.4375 34.214844 C 60.03125 35.976562 64.59375 34.207031 66.054688 33.382812 C 67.515625 32.5625 67.730469 30.625 65.171875 31.71875 C 62.617188 32.8125 56.929688 34.042969 57.019531 31.121094 C 57.113281 28.199219 55.871094 30.542969 55.871094 30.542969 Z M 55.871094 30.542969 "/>
</g>
</svg>
