<?xml version="1.0" encoding="UTF-8"?>
<svg xmlns="http://www.w3.org/2000/svg" xmlns:xlink="http://www.w3.org/1999/xlink" viewBox="0 0 96 96" width="96px" height="96px">
<g id="surface76845869">
<path style=" stroke:none;fill-rule:nonzero;fill:rgb(49.803922%,54.901963%,100%);fill-opacity:1;" d="M 79.414062 10.089844 C 67.828125 7.832031 56.636719 6.054688 47.265625 6.007812 L 47.265625 6 C 47.203125 6 47.132812 6.003906 47.070312 6.003906 C 47.007812 6.003906 46.9375 6 46.875 6 L 46.875 6.007812 C 37.589844 6.054688 26.5 7.832031 15.023438 10.089844 C 13.539062 39.230469 11.882812 73.808594 47.070312 90.746094 C 80.316406 72.105469 81.34375 47.644531 79.414062 10.089844 Z M 79.414062 10.089844 "/>
<path style=" stroke:none;fill-rule:nonzero;fill:rgb(20.392157%,27.058825%,38.82353%);fill-opacity:1;" d="M 15.023438 10.089844 C 14.503906 20.339844 13.96875 31.257812 15.011719 41.847656 L 46.648438 41.847656 L 46.964844 90.691406 C 47.003906 90.710938 47.035156 90.730469 47.070312 90.746094 C 70.058594 77.855469 77.640625 62.636719 79.492188 41.78125 L 46.84375 41.78125 L 46.84375 6.011719 C 37.5625 6.0625 26.488281 7.835938 15.023438 10.089844 Z M 15.023438 10.089844 "/>
<path style=" stroke:none;fill-rule:nonzero;fill:rgb(98.039216%,98.039216%,98.039216%);fill-opacity:1;" d="M 22.496094 19.328125 C 22.496094 19.328125 20.214844 19.914062 20.148438 21.742188 C 21.320312 21.351562 22.757812 21.480469 22.757812 21.480469 Z M 22.496094 19.328125 "/>
<path style=" stroke:none;fill-rule:nonzero;fill:rgb(98.039216%,98.039216%,98.039216%);fill-opacity:1;" d="M 22.757812 14.433594 C 22.757812 14.433594 24.519531 14.171875 25.171875 15.085938 C 25.824219 14.042969 26.410156 13.519531 26.410156 13.519531 C 26.410156 13.519531 23.800781 12.085938 22.757812 14.433594 Z M 22.757812 14.433594 "/>
<path style=" stroke:none;fill-rule:nonzero;fill:rgb(98.039216%,98.039216%,98.039216%);fill-opacity:1;" d="M 28.957031 11.757812 C 28.957031 11.757812 30.003906 11.691406 30.394531 13.453125 C 31.371094 13.386719 32.480469 13.386719 32.480469 13.386719 C 32.480469 13.386719 32.09375 10.972656 28.957031 11.757812 Z M 28.957031 11.757812 "/>
<path style=" stroke:none;fill-rule:nonzero;fill:rgb(98.039216%,98.039216%,98.039216%);fill-opacity:1;" d="M 22.964844 32.003906 C 22.964844 32.003906 20.804688 30.675781 19.519531 32.378906 C 19.519531 32.378906 21.054688 32.683594 21.601562 33.484375 C 22.128906 32.40625 22.964844 32.003906 22.964844 32.003906 Z M 22.964844 32.003906 "/>
<path style=" stroke:none;fill-rule:nonzero;fill:rgb(98.039216%,98.039216%,98.039216%);fill-opacity:1;" d="M 19.820312 36.460938 C 19.820312 36.460938 18.257812 37.242188 18.972656 39.332031 C 19.691406 38.289062 21.128906 38.15625 21.128906 38.15625 Z M 19.820312 36.460938 "/>
<path style=" stroke:none;fill-rule:nonzero;fill:rgb(98.039216%,98.039216%,98.039216%);fill-opacity:1;" d="M 21.191406 41.714844 C 21.191406 41.714844 19.625 44.390625 21.257812 45.433594 L 22.234375 43.867188 Z M 21.191406 41.714844 "/>
<path style=" stroke:none;fill-rule:nonzero;fill:rgb(98.039216%,98.039216%,98.039216%);fill-opacity:1;" d="M 31.046875 51.828125 C 31.046875 51.828125 28.175781 51.046875 26.675781 52.351562 L 29.808594 53.199219 Z M 31.046875 51.828125 "/>
<path style=" stroke:none;fill-rule:nonzero;fill:rgb(98.039216%,98.039216%,98.039216%);fill-opacity:1;" d="M 26.542969 57.117188 C 26.542969 57.117188 24.714844 58.878906 25.824219 60.578125 C 26.023438 59.074219 28.046875 58.425781 28.046875 58.425781 Z M 26.542969 57.117188 "/>
<path style=" stroke:none;fill-rule:nonzero;fill:rgb(98.039216%,98.039216%,98.039216%);fill-opacity:1;" d="M 30.589844 62.078125 C 30.589844 62.078125 29.285156 64.296875 31.179688 65.667969 C 31.046875 64.035156 32.484375 62.601562 32.484375 62.601562 Z M 30.589844 62.078125 "/>
<path style=" stroke:none;fill-rule:nonzero;fill:rgb(98.039216%,98.039216%,98.039216%);fill-opacity:1;" d="M 44.296875 71.476562 C 44.296875 71.476562 41.554688 73.367188 42.859375 75.324219 C 43.578125 74.214844 45.46875 73.300781 45.46875 73.300781 Z M 44.296875 71.476562 "/>
<path style=" stroke:none;fill-rule:nonzero;fill:rgb(98.039216%,98.039216%,98.039216%);fill-opacity:1;" d="M 46.320312 75.132812 C 46.320312 75.132812 44.230469 76.828125 45.667969 78.785156 C 45.929688 77.613281 47.820312 76.4375 47.820312 76.4375 Z M 46.320312 75.132812 "/>
<path style=" stroke:none;fill-rule:nonzero;fill:rgb(98.039216%,98.039216%,98.039216%);fill-opacity:1;" d="M 50.300781 77.9375 C 50.300781 77.9375 49.320312 79.699219 51.148438 81.203125 C 50.953125 79.113281 52.386719 78.070312 52.386719 78.070312 Z M 50.300781 77.9375 "/>
<path style=" stroke:none;fill-rule:nonzero;fill:rgb(20.392157%,28.627452%,36.862746%);fill-opacity:1;" d="M 47.105469 91.875 L 46.636719 91.648438 C 10.753906 74.375 12.566406 38.703125 14.023438 10.039062 L 14.0625 9.261719 L 14.828125 9.109375 C 24.082031 7.289062 35.882812 5.199219 45.875 5.019531 L 45.875 5.011719 L 46.875 5.003906 L 47.167969 6 L 47.136719 5.003906 L 48.167969 4.972656 L 48.171875 5.019531 C 58.277344 5.1875 70.234375 7.28125 79.605469 9.109375 L 80.375 9.257812 L 80.414062 10.039062 C 82.375 48.238281 81.140625 72.789062 47.558594 91.621094 Z M 15.980469 10.921875 C 14.5 40.128906 13.132812 72.992188 47.039062 89.617188 C 78.941406 71.515625 80.3125 47.730469 78.457031 10.921875 C 69.007812 9.097656 57.113281 7.058594 47.261719 7.011719 L 46.878906 7.011719 C 37.121094 7.058594 25.339844 9.09375 15.980469 10.921875 Z M 15.980469 10.921875 "/>
<path style=" stroke:none;fill-rule:nonzero;fill:rgb(20.392157%,28.627452%,36.862746%);fill-opacity:1;" d="M 40.183594 20.164062 L 42.402344 23.917969 C 42.402344 23.917969 48.082031 23.820312 47.332031 20.589844 C 46.578125 17.359375 40.183594 20.164062 40.183594 20.164062 Z M 40.183594 20.164062 "/>
<path style=" stroke:none;fill-rule:nonzero;fill:rgb(92.54902%,94.117647%,94.509804%);fill-opacity:1;" d="M 39.597656 27.097656 C 39.597656 27.097656 36.105469 24.769531 34.277344 24.375 C 31.960938 22.570312 33.066406 18.285156 33.066406 18.285156 C 33.066406 18.285156 35.875 13.574219 31.042969 12.984375 C 29.347656 12.59375 29.085938 14.953125 29.085938 14.953125 C 29.085938 14.953125 27.585938 12.734375 25.433594 13.648438 C 23.277344 14.5625 25.171875 17.761719 25.171875 17.761719 C 25.171875 17.761719 22.296875 17.433594 22.234375 20.238281 C 22.167969 23.046875 24.714844 23.175781 24.714844 23.175781 C 24.714844 23.175781 25.953125 21.023438 27.648438 23.109375 C 29.347656 25.199219 26.214844 25.394531 26.214844 25.394531 C 26.214844 25.394531 27.257812 27.089844 29.085938 27.027344 C 30.914062 26.960938 31.566406 28.527344 29.804688 28.722656 C 31.371094 31.722656 35.351562 31.84375 35.351562 31.84375 L 33.265625 32.570312 L 37.308594 35.445312 L 36.265625 36.75 C 36.265625 36.75 33.460938 37.074219 31.4375 36.097656 C 29.410156 35.121094 27.78125 36.621094 27.78125 36.621094 C 27.78125 36.621094 27.390625 33.355469 25.824219 32.835938 C 25.039062 30.289062 20.34375 31.59375 21.058594 34.660156 C 19.230469 35.054688 19.003906 38.566406 22.136719 39.21875 C 20.503906 41.570312 20.992188 43.277344 22.429688 44.125 C 23.867188 44.972656 25.300781 44.191406 25.824219 42.625 C 26.347656 41.058594 29.089844 42.886719 27.261719 44.386719 C 29.738281 44.777344 30.261719 44.125 31.242188 43.472656 C 32.21875 42.820312 34.636719 43.277344 32.21875 44.972656 C 35.15625 45.886719 36.59375 45.691406 37.636719 44.582031 C 38.683594 43.472656 40.3125 44.453125 38.09375 45.820312 C 41.683594 46.277344 43.707031 46.085938 45.011719 44.648438 C 44.6875 46.085938 46.773438 47.390625 46.773438 47.390625 C 46.773438 47.390625 39.855469 46.605469 39.203125 50.324219 C 38.550781 54.046875 40.640625 54.566406 40.835938 55.480469 C 41.03125 56.394531 39.597656 56.527344 38.550781 56.199219 C 37.507812 55.875 35.15625 55.285156 33.789062 55.613281 C 35.289062 52.542969 34.441406 50 30.914062 51.433594 C 29.480469 51.957031 29.414062 53.914062 29.414062 53.914062 C 29.414062 53.914062 26.609375 54.4375 27 57.699219 C 27.390625 60.964844 29.871094 60.769531 29.871094 60.769531 C 29.871094 60.769531 29.089844 63.117188 31.4375 63.183594 C 33.789062 63.246094 33.460938 60.308594 34.703125 60.570312 C 35.941406 60.835938 35.355469 63.898438 35.355469 63.898438 C 35.355469 63.898438 39.792969 64.488281 42.402344 64.226562 C 42.335938 65.269531 42.597656 65.859375 42.597656 65.859375 C 42.597656 65.859375 44.101562 62.660156 48.992188 62.53125 C 51.019531 65.074219 50.691406 65.335938 52.84375 65.859375 C 54.996094 66.378906 56.042969 68.011719 54.28125 68.339844 C 52.519531 68.664062 51.34375 72.058594 51.34375 72.058594 C 51.34375 72.058594 48.734375 68.792969 45.992188 69.382812 C 43.25 69.96875 44.101562 73.949219 45.925781 74.34375 C 45.730469 76.429688 48.730469 77.019531 50.296875 76.886719 C 50.167969 78.714844 52.519531 78.769531 53.367188 77.335938 C 54.214844 75.898438 54.148438 75.714844 54.148438 75.714844 C 54.148438 75.714844 56.074219 77.890625 58.980469 72.515625 C 60.871094 72.125 59.765625 68.863281 59.765625 68.863281 C 59.765625 68.863281 63.808594 68.015625 61.789062 64.683594 C 59.765625 61.355469 59.308594 56.328125 59.308594 56.328125 C 59.308594 56.328125 60.351562 56.980469 60.480469 54.765625 C 63.09375 55.414062 64.070312 56.003906 65.769531 58.289062 C 67.464844 60.570312 65.441406 61.683594 67.398438 63.964844 C 67.074219 65.402344 66.617188 66.1875 66.617188 66.1875 C 66.617188 66.1875 71.183594 64.425781 70.140625 59.136719 C 73.074219 57.308594 76.667969 53.394531 72.292969 47.585938 C 67.921875 41.777344 63.289062 34.402344 64.984375 28.136719 C 66.679688 21.871094 70.859375 23.109375 71.773438 23.828125 C 72.6875 24.546875 73.664062 29.441406 71.445312 31.136719 C 69.226562 32.835938 69.359375 35.183594 69.488281 36.6875 C 69.617188 38.1875 69.359375 39.558594 69.359375 39.558594 C 69.359375 39.558594 70.726562 38.96875 71.1875 37.339844 C 71.316406 39.816406 72.425781 41.382812 72.425781 41.382812 L 74.253906 38.382812 L 75.492188 38.773438 C 75.492188 38.773438 75.558594 33.878906 74.125 31.660156 C 75.757812 26.894531 77.84375 22 72.429688 19.261719 C 67.011719 16.519531 61.984375 26.375 61.59375 27.808594 C 61.203125 29.246094 59.636719 37.078125 64.726562 43.605469 C 69.816406 50.128906 72.230469 52.804688 70.730469 54.242188 C 69.226562 55.679688 65.246094 53.785156 62.964844 51.957031 C 62.636719 49.675781 62.507812 47.585938 60.417969 46.410156 C 60.742188 43.734375 58.328125 40.144531 56.503906 38.382812 C 58.527344 35.96875 58.132812 33.878906 57.9375 31.855469 C 58.785156 32.050781 59.765625 32.574219 59.765625 32.574219 L 59.375 26.375 C 59.375 26.375 62.117188 25.722656 60.941406 22.785156 C 60.941406 22.785156 60.417969 16.78125 59.828125 15.40625 C 61.332031 15.34375 55.980469 12.078125 55.980469 12.078125 L 56.632812 9.925781 C 56.632812 9.925781 52.78125 9.859375 51.542969 8.816406 C 51.410156 10.644531 47.953125 11.621094 47.820312 9.730469 C 46.90625 9.664062 45.734375 9.730469 45.734375 9.730469 C 45.734375 9.730469 46.648438 11.035156 45.082031 11.949219 C 43.515625 12.863281 41.753906 13.972656 41.492188 15.214844 C 39.730469 15.410156 39.535156 16.714844 39.535156 16.714844 C 39.535156 16.714844 37.3125 16.847656 38.554688 18.871094 C 39.796875 20.894531 41.949219 21.546875 43.257812 19.847656 C 44.625 19.523438 46.128906 19.128906 46.648438 21.414062 C 47.171875 23.699219 41.949219 23.175781 41.949219 23.175781 C 41.949219 23.175781 42.210938 24.546875 44.171875 24.546875 C 46.128906 24.546875 39.597656 27.097656 39.597656 27.097656 Z M 39.597656 27.097656 "/>
<path style=" stroke:none;fill-rule:nonzero;fill:rgb(20.392157%,28.627452%,36.862746%);fill-opacity:1;" d="M 42.664062 16.523438 L 43.640625 16.914062 L 44.949219 16.523438 C 44.949219 16.523438 45.144531 17.5 46.316406 17.175781 C 47.492188 16.847656 46.839844 15.804688 46.839844 15.804688 C 46.839844 15.804688 49.320312 14.761719 50.039062 17.175781 C 50.757812 19.589844 48.796875 20.175781 48.796875 20.175781 C 48.796875 20.175781 49.449219 23.765625 46.515625 24.355469 C 43.578125 24.941406 41.945312 23.179688 41.945312 23.179688 C 41.945312 23.179688 42.402344 25.203125 40.96875 26.835938 C 43.253906 27.683594 45.078125 25.984375 45.078125 25.984375 C 45.078125 25.984375 48.867188 25.984375 50.628906 23.050781 C 53.761719 24.421875 54.023438 21.679688 52.457031 18.871094 C 53.957031 18.414062 53.957031 18.152344 53.957031 18.152344 C 53.957031 18.152344 52.523438 16.980469 53.304688 15.28125 C 51.414062 15.476562 50.824219 13.714844 50.824219 12.867188 C 48.738281 14.175781 47.300781 13.910156 47.105469 12.933594 C 45.730469 14.824219 42.664062 16.523438 42.664062 16.523438 Z M 42.664062 16.523438 "/>
<path style=" stroke:none;fill-rule:nonzero;fill:rgb(20.392157%,28.627452%,36.862746%);fill-opacity:1;" d="M 53.238281 11.625 C 53.238281 11.625 56.566406 10.515625 57.089844 9.539062 C 57.609375 11.886719 57.414062 12.605469 57.414062 12.605469 C 57.414062 12.605469 59.894531 14.109375 61.917969 13.585938 C 63.09375 15.476562 59.828125 15.410156 59.828125 15.410156 C 59.828125 15.410156 61.65625 17.589844 61.199219 20.4375 C 61.820312 22.289062 61.59375 25.660156 59.894531 26.835938 C 59.503906 30.03125 59.992188 32.894531 59.992188 32.894531 L 58.261719 32.121094 C 58.261719 32.121094 59.371094 34.40625 58.851562 35.972656 C 58.328125 37.539062 58.003906 37.996094 58.914062 38.972656 C 57.871094 41.0625 59.894531 41.519531 60.351562 43.28125 C 60.808594 45.042969 60.742188 46.285156 60.742188 46.285156 C 60.742188 46.285156 64.203125 48.242188 63.679688 51.894531 C 63.679688 51.894531 68.3125 53.332031 69.554688 56.789062 C 69.945312 57.898438 71.054688 56.789062 71.054688 56.007812 C 72.296875 56.332031 72.988281 55.484375 72.6875 53.003906 C 72.421875 50.820312 70.167969 46.859375 67.660156 43.59375 C 65.71875 41.0625 62.375 35.1875 63.222656 30.683594 C 64.070312 26.179688 67.269531 21.675781 71.054688 22.589844 C 74.84375 23.503906 72.492188 29.820312 72.492188 29.820312 C 72.492188 29.820312 73.144531 23.894531 70.796875 23.761719 C 68.445312 23.632812 65.246094 26.371094 65.050781 31.007812 C 64.855469 35.640625 67.988281 40.863281 69.488281 42.429688 C 70.992188 43.992188 73.863281 47.128906 74.84375 49.28125 C 75.820312 51.433594 74.90625 53.261719 74.90625 53.261719 C 74.90625 53.261719 76.933594 56.328125 73.796875 58.417969 C 74.253906 60.179688 71.382812 60.570312 70.535156 60.050781 C 70.988281 62.136719 70.140625 64.8125 68.574219 65.46875 C 69.292969 62.53125 69.359375 60.964844 68.183594 59.464844 C 67.011719 57.960938 66.324219 57.855469 66.324219 59.484375 C 64.820312 56.941406 63.453125 55.144531 60.449219 54.949219 C 59.339844 52.402344 56.4375 52.351562 56.4375 52.351562 C 56.4375 52.351562 58.589844 48.5 55.914062 46.738281 C 57.089844 44.0625 52.976562 40.667969 52.976562 40.667969 C 52.976562 40.667969 52.910156 36.949219 52 35.578125 C 51.085938 34.207031 49.585938 35.253906 49.585938 35.253906 C 49.585938 35.253906 52.914062 32.121094 53.4375 30.359375 C 54.089844 32.25 53.761719 33.035156 53.761719 33.6875 C 53.761719 34.339844 54.675781 35.96875 54.675781 35.96875 L 56.699219 32.574219 L 54.9375 32.773438 C 54.9375 32.773438 58.65625 27.8125 56.765625 25.070312 C 58.722656 22.523438 56.503906 20.238281 56.503906 20.238281 L 58.070312 16.847656 C 58.066406 16.847656 53.695312 13.128906 53.238281 11.625 Z M 53.238281 11.625 "/>
<path style=" stroke:none;fill-rule:nonzero;fill:rgb(20.392157%,28.627452%,36.862746%);fill-opacity:1;" d="M 68.445312 19.316406 C 68.445312 19.316406 71.820312 19.070312 73.535156 20.6875 C 75.851562 22.875 75.492188 28.074219 72.945312 31.664062 C 74.253906 34.015625 73.925781 35.1875 73.925781 35.1875 L 73.074219 34.730469 C 73.074219 34.730469 73.53125 36.953125 73.074219 38.320312 C 72.621094 39.691406 72.425781 41.390625 72.425781 41.390625 L 74.578125 38.585938 L 75.753906 39.039062 C 75.753906 39.039062 76.339844 33.558594 74.640625 31.730469 C 75.816406 29.25 78.363281 23.769531 75.164062 20.375 C 73.929688 18.871094 70.597656 18.140625 68.445312 19.316406 Z M 68.445312 19.316406 "/>
<path style=" stroke:none;fill-rule:nonzero;fill:rgb(20.392157%,28.627452%,36.862746%);fill-opacity:1;" d="M 57.675781 53.921875 C 57.675781 53.921875 60.742188 56.140625 60.679688 59.402344 C 63.679688 60.707031 63.289062 65.796875 63.289062 65.796875 C 63.289062 65.796875 65.898438 67.167969 60.9375 69.519531 C 62.960938 71.019531 61.589844 72.976562 58.066406 72.453125 C 56.628906 71.996094 59.4375 69.90625 58.523438 68.277344 C 61.003906 67.949219 60.871094 65.273438 59.238281 64.292969 C 57.609375 63.316406 58.652344 60.898438 58.652344 60.898438 L 56.824219 60.050781 C 56.824219 60.050781 58.714844 59.335938 58.390625 57.898438 C 58.0625 56.460938 57.546875 55.484375 57.675781 53.921875 Z M 57.675781 53.921875 "/>
<path style=" stroke:none;fill-rule:nonzero;fill:rgb(20.392157%,28.627452%,36.862746%);fill-opacity:1;" d="M 44.816406 70.039062 C 44.816406 70.039062 43.578125 73.433594 48.605469 72.648438 C 48.082031 75.585938 49.257812 76.175781 51.539062 75.261719 C 50.820312 77.738281 54.085938 75.910156 55.0625 73.234375 C 55.128906 75.78125 56.5 76.304688 58.652344 73.039062 C 57.089844 77.792969 54.933594 77.011719 54.347656 76.042969 C 53.695312 78.652344 50.757812 79.566406 49.710938 76.957031 C 47.6875 77.804688 44.753906 76.628906 45.925781 74.347656 C 43.839844 73.367188 42.925781 72.648438 44.816406 70.039062 Z M 44.816406 70.039062 "/>
<path style=" stroke:none;fill-rule:nonzero;fill:rgb(20.392157%,28.627452%,36.862746%);fill-opacity:1;" d="M 47.625 48.175781 C 47.625 48.175781 42.859375 47.457031 42.140625 50.066406 C 41.425781 52.679688 44.6875 54.113281 42.402344 57.117188 C 40.121094 60.117188 39.988281 61.878906 39.988281 61.878906 C 39.988281 61.878906 40.382812 60.707031 42.664062 60.511719 C 44.949219 60.3125 42.46875 62.535156 42.210938 63.773438 C 41.949219 65.015625 42.796875 67.234375 42.796875 67.234375 C 42.796875 67.234375 43.710938 65.539062 45.148438 64.820312 C 46.585938 64.101562 48.085938 64.492188 49.519531 63.253906 C 46.972656 58.75 49.257812 55.097656 49.257812 55.097656 C 49.257812 55.097656 48.019531 52.160156 48.539062 50.332031 C 49.058594 48.503906 47.625 48.175781 47.625 48.175781 Z M 47.625 48.175781 "/>
<path style=" stroke:none;fill-rule:nonzero;fill:rgb(20.392157%,28.627452%,36.862746%);fill-opacity:1;" d="M 37.378906 61.621094 L 35.355469 63.902344 C 38.304688 64.511719 41.144531 64.644531 43.839844 64.164062 C 43.839844 64.164062 38.8125 63.710938 37.378906 61.621094 Z M 37.378906 61.621094 "/>
<path style=" stroke:none;fill-rule:nonzero;fill:rgb(20.392157%,28.627452%,36.862746%);fill-opacity:1;" d="M 31.765625 59.011719 C 31.765625 59.011719 30.980469 61.359375 28.890625 61.035156 C 26.804688 60.707031 26.410156 56.464844 26.410156 56.464844 C 26.410156 56.464844 26.609375 54.507812 28.632812 53.921875 C 30.65625 53.332031 31.894531 55.8125 31.894531 55.8125 C 31.894531 55.8125 29.742188 54.507812 28.503906 55.160156 C 27.261719 55.8125 27.261719 56.398438 27.390625 57.511719 C 27.523438 58.621094 29.613281 60.1875 31.765625 59.011719 Z M 31.765625 59.011719 "/>
<path style=" stroke:none;fill-rule:nonzero;fill:rgb(20.392157%,28.627452%,36.862746%);fill-opacity:1;" d="M 30.265625 52.09375 C 30.265625 52.09375 34.375 51.375 33.394531 55.746094 C 36.007812 53.265625 34.960938 52.09375 34.113281 51.179688 C 33.265625 50.265625 30.785156 50.722656 30.265625 52.09375 Z M 30.265625 52.09375 "/>
<path style=" stroke:none;fill-rule:nonzero;fill:rgb(20.392157%,28.627452%,36.862746%);fill-opacity:1;" d="M 46.84375 35.710938 C 46.84375 35.710938 42.273438 40.214844 43.382812 43.148438 C 41.425781 44.128906 40.773438 41.125 40.773438 41.125 C 40.773438 41.125 37.835938 42.953125 34.441406 41.972656 C 31.046875 40.996094 29.9375 42.039062 29.9375 42.039062 L 30.65625 40.148438 C 30.65625 40.148438 23.476562 42.5625 22.496094 41.386719 C 21.519531 40.214844 23.804688 38.320312 23.804688 38.320312 C 23.804688 38.320312 20.605469 39.429688 20.734375 41.257812 C 20.867188 43.085938 22.433594 44.847656 24.390625 44.386719 C 26.347656 43.929688 26.542969 41.710938 28.109375 42.429688 C 29.675781 43.148438 27.261719 44.386719 27.261719 44.386719 C 27.261719 44.386719 30.003906 44.78125 30.851562 44.125 C 31.699219 43.472656 33.789062 43.082031 33.136719 44.320312 C 32.484375 45.5625 31.699219 45.171875 31.699219 45.171875 C 31.699219 45.171875 34.050781 46.605469 36.070312 45.367188 C 38.097656 44.125 39.859375 44.058594 38.421875 46.085938 C 41.425781 46.605469 44.164062 46.148438 45.40625 43.929688 C 46.644531 41.710938 47.234375 42.886719 47.234375 42.886719 Z M 46.84375 35.710938 "/>
<path style=" stroke:none;fill-rule:nonzero;fill:rgb(20.392157%,28.627452%,36.862746%);fill-opacity:1;" d="M 22.726562 31.695312 C 22.726562 31.695312 21.222656 34.894531 23.378906 35.546875 C 21.289062 36.070312 19.234375 33.253906 22.726562 31.695312 Z M 22.726562 31.695312 "/>
<path style=" stroke:none;fill-rule:nonzero;fill:rgb(20.392157%,28.627452%,36.862746%);fill-opacity:1;" d="M 30.492188 12.953125 C 31.960938 13.246094 33.492188 15.140625 31.765625 17.4375 C 32.21875 19.265625 30.652344 21.546875 30.652344 21.546875 C 30.652344 21.546875 33.394531 23.179688 32.875 25.269531 C 35.027344 25.921875 36.660156 29.707031 36.660156 29.707031 C 36.660156 29.707031 38.683594 27.8125 39.859375 27.355469 C 39.207031 26.117188 36.921875 24.15625 34.507812 24.15625 C 35.355469 21.027344 33.199219 20.308594 33.199219 20.308594 C 33.199219 20.308594 34.046875 19.003906 33.460938 17.957031 C 34.636719 16.066406 34.148438 12.367188 30.492188 12.953125 Z M 30.492188 12.953125 "/>
<path style=" stroke:none;fill-rule:nonzero;fill:rgb(20.392157%,28.627452%,36.862746%);fill-opacity:1;" d="M 32.417969 31.925781 C 32.417969 31.925781 34.734375 35.601562 37.347656 35.40625 C 37.085938 33.578125 38.683594 31.46875 38.683594 31.46875 C 38.683594 31.46875 37.246094 30.621094 35.550781 31.597656 C 33.855469 32.578125 32.417969 31.925781 32.417969 31.925781 Z M 32.417969 31.925781 "/>
<path style=" stroke:none;fill-rule:nonzero;fill:rgb(93.725491%,60.392159%,60.392159%);fill-opacity:1;" d="M 37.246094 20.363281 C 37.246094 20.363281 36.429688 21.542969 38.292969 22.808594 C 40.023438 23.984375 43.0625 22.804688 44.035156 22.257812 C 45.011719 21.707031 45.152344 20.414062 43.449219 21.144531 C 41.742188 21.875 37.953125 22.695312 38.015625 20.746094 C 38.074219 18.800781 37.246094 20.363281 37.246094 20.363281 Z M 37.246094 20.363281 "/>
</g>
</svg>
