<?xml version="1.0" encoding="UTF-8"?>
<svg xmlns="http://www.w3.org/2000/svg" xmlns:xlink="http://www.w3.org/1999/xlink" viewBox="0 0 48 48" width="48px" height="48px">
<g id="surface76783343">
<path style=" stroke:none;fill-rule:nonzero;fill:rgb(49.803922%,54.901963%,100%);fill-opacity:1;" d="M 39.707031 5.046875 C 33.914062 3.914062 28.316406 3.027344 23.632812 3.003906 L 23.632812 3 C 23.601562 3 23.566406 3.003906 23.535156 3.003906 C 23.503906 3.003906 23.46875 3 23.4375 3 L 23.4375 3.003906 C 18.796875 3.027344 13.25 3.914062 7.511719 5.046875 C 6.769531 19.617188 5.941406 36.90625 23.535156 45.371094 C 40.160156 36.050781 40.671875 23.824219 39.707031 5.046875 Z M 39.707031 5.046875 "/>
<path style=" stroke:none;fill-rule:nonzero;fill:rgb(20.392157%,27.058825%,38.82353%);fill-opacity:1;" d="M 7.511719 5.046875 C 7.25 10.167969 6.984375 15.628906 7.507812 20.921875 L 23.324219 20.921875 L 23.480469 45.347656 C 23.5 45.355469 23.519531 45.363281 23.535156 45.375 C 35.03125 38.929688 38.820312 31.320312 39.746094 20.890625 L 23.421875 20.890625 L 23.421875 3.003906 C 18.78125 3.03125 13.242188 3.917969 7.511719 5.046875 Z M 7.511719 5.046875 "/>
<path style=" stroke:none;fill-rule:nonzero;fill:rgb(98.039216%,98.039216%,98.039216%);fill-opacity:1;" d="M 11.25 9.664062 C 11.25 9.664062 10.105469 9.957031 10.074219 10.871094 C 10.660156 10.675781 11.378906 10.738281 11.378906 10.738281 Z M 11.25 9.664062 "/>
<path style=" stroke:none;fill-rule:nonzero;fill:rgb(98.039216%,98.039216%,98.039216%);fill-opacity:1;" d="M 11.378906 7.21875 C 11.378906 7.21875 12.261719 7.085938 12.585938 7.542969 C 12.910156 7.019531 13.207031 6.761719 13.207031 6.761719 C 13.207031 6.761719 11.902344 6.042969 11.378906 7.21875 Z M 11.378906 7.21875 "/>
<path style=" stroke:none;fill-rule:nonzero;fill:rgb(98.039216%,98.039216%,98.039216%);fill-opacity:1;" d="M 14.480469 5.878906 C 14.480469 5.878906 15 5.847656 15.195312 6.726562 C 15.6875 6.695312 16.242188 6.695312 16.242188 6.695312 C 16.242188 6.695312 16.046875 5.488281 14.480469 5.878906 Z M 14.480469 5.878906 "/>
<path style=" stroke:none;fill-rule:nonzero;fill:rgb(98.039216%,98.039216%,98.039216%);fill-opacity:1;" d="M 11.484375 16.003906 C 11.484375 16.003906 10.402344 15.335938 9.757812 16.1875 C 9.757812 16.1875 10.527344 16.34375 10.800781 16.742188 C 11.066406 16.203125 11.484375 16.003906 11.484375 16.003906 Z M 11.484375 16.003906 "/>
<path style=" stroke:none;fill-rule:nonzero;fill:rgb(98.039216%,98.039216%,98.039216%);fill-opacity:1;" d="M 9.910156 18.230469 C 9.910156 18.230469 9.128906 18.621094 9.488281 19.664062 C 9.847656 19.144531 10.5625 19.078125 10.5625 19.078125 Z M 9.910156 18.230469 "/>
<path style=" stroke:none;fill-rule:nonzero;fill:rgb(98.039216%,98.039216%,98.039216%);fill-opacity:1;" d="M 10.597656 20.855469 C 10.597656 20.855469 9.8125 22.195312 10.628906 22.71875 L 11.117188 21.933594 Z M 10.597656 20.855469 "/>
<path style=" stroke:none;fill-rule:nonzero;fill:rgb(98.039216%,98.039216%,98.039216%);fill-opacity:1;" d="M 15.523438 25.914062 C 15.523438 25.914062 14.089844 25.523438 13.339844 26.175781 L 14.902344 26.601562 Z M 15.523438 25.914062 "/>
<path style=" stroke:none;fill-rule:nonzero;fill:rgb(98.039216%,98.039216%,98.039216%);fill-opacity:1;" d="M 13.273438 28.558594 C 13.273438 28.558594 12.359375 29.441406 12.914062 30.289062 C 13.011719 29.539062 14.023438 29.210938 14.023438 29.210938 Z M 13.273438 28.558594 "/>
<path style=" stroke:none;fill-rule:nonzero;fill:rgb(98.039216%,98.039216%,98.039216%);fill-opacity:1;" d="M 15.296875 31.039062 C 15.296875 31.039062 14.640625 32.148438 15.589844 32.835938 C 15.523438 32.019531 16.242188 31.300781 16.242188 31.300781 Z M 15.296875 31.039062 "/>
<path style=" stroke:none;fill-rule:nonzero;fill:rgb(98.039216%,98.039216%,98.039216%);fill-opacity:1;" d="M 22.148438 35.738281 C 22.148438 35.738281 20.777344 36.683594 21.429688 37.664062 C 21.789062 37.109375 22.734375 36.652344 22.734375 36.652344 Z M 22.148438 35.738281 "/>
<path style=" stroke:none;fill-rule:nonzero;fill:rgb(98.039216%,98.039216%,98.039216%);fill-opacity:1;" d="M 23.160156 37.566406 C 23.160156 37.566406 22.117188 38.414062 22.835938 39.394531 C 22.964844 38.804688 23.910156 38.21875 23.910156 38.21875 Z M 23.160156 37.566406 "/>
<path style=" stroke:none;fill-rule:nonzero;fill:rgb(98.039216%,98.039216%,98.039216%);fill-opacity:1;" d="M 25.148438 38.96875 C 25.148438 38.96875 24.660156 39.851562 25.574219 40.601562 C 25.476562 39.558594 26.195312 39.035156 26.195312 39.035156 Z M 25.148438 38.96875 "/>
<path style=" stroke:none;fill-rule:nonzero;fill:rgb(20.392157%,28.627452%,36.862746%);fill-opacity:1;" d="M 23.554688 45.9375 L 23.320312 45.824219 C 5.375 37.1875 6.28125 19.351562 7.011719 5.019531 L 7.03125 4.628906 L 7.414062 4.554688 C 12.039062 3.644531 17.941406 2.601562 22.9375 2.511719 L 22.9375 2.503906 L 23.4375 2.5 L 23.585938 3 L 23.570312 2.5 L 24.085938 2.484375 L 24.085938 2.507812 C 29.136719 2.59375 35.117188 3.640625 39.804688 4.554688 L 40.1875 4.628906 L 40.207031 5.019531 C 41.1875 24.117188 40.570312 36.394531 23.78125 45.808594 Z M 7.992188 5.460938 C 7.25 20.066406 6.566406 36.496094 23.519531 44.808594 C 39.46875 35.757812 40.15625 23.863281 39.230469 5.460938 C 34.503906 4.546875 28.554688 3.53125 23.628906 3.503906 L 23.4375 3.503906 C 18.5625 3.527344 12.671875 4.546875 7.992188 5.460938 Z M 7.992188 5.460938 "/>
<path style=" stroke:none;fill-rule:nonzero;fill:rgb(20.392157%,28.627452%,36.862746%);fill-opacity:1;" d="M 20.09375 10.082031 L 21.203125 11.960938 C 21.203125 11.960938 24.039062 11.910156 23.664062 10.296875 C 23.289062 8.679688 20.09375 10.082031 20.09375 10.082031 Z M 20.09375 10.082031 "/>
<path style=" stroke:none;fill-rule:nonzero;fill:rgb(92.54902%,94.117647%,94.509804%);fill-opacity:1;" d="M 19.796875 13.546875 C 19.796875 13.546875 18.050781 12.382812 17.136719 12.1875 C 15.980469 11.285156 16.535156 9.140625 16.535156 9.140625 C 16.535156 9.140625 17.9375 6.785156 15.523438 6.492188 C 14.675781 6.296875 14.542969 7.476562 14.542969 7.476562 C 14.542969 7.476562 13.792969 6.367188 12.714844 6.824219 C 11.640625 7.28125 12.585938 8.878906 12.585938 8.878906 C 12.585938 8.878906 11.148438 8.71875 11.117188 10.121094 C 11.085938 11.523438 12.355469 11.589844 12.355469 11.589844 C 12.355469 11.589844 12.976562 10.511719 13.824219 11.554688 C 14.671875 12.597656 13.105469 12.695312 13.105469 12.695312 C 13.105469 12.695312 13.628906 13.546875 14.542969 13.511719 C 15.457031 13.480469 15.78125 14.265625 14.902344 14.359375 C 15.683594 15.863281 17.675781 15.921875 17.675781 15.921875 L 16.632812 16.285156 L 18.65625 17.722656 L 18.132812 18.375 C 18.132812 18.375 16.730469 18.539062 15.71875 18.050781 C 14.707031 17.558594 13.890625 18.308594 13.890625 18.308594 C 13.890625 18.308594 13.695312 16.679688 12.910156 16.417969 C 12.519531 15.144531 10.171875 15.796875 10.53125 17.332031 C 9.617188 17.527344 9.503906 19.285156 11.066406 19.609375 C 10.253906 20.785156 10.496094 21.640625 11.214844 22.0625 C 11.933594 22.488281 12.652344 22.097656 12.910156 21.3125 C 13.171875 20.527344 14.542969 21.441406 13.628906 22.191406 C 14.871094 22.390625 15.132812 22.0625 15.621094 21.734375 C 16.109375 21.410156 17.316406 21.636719 16.109375 22.488281 C 17.578125 22.945312 18.296875 22.847656 18.820312 22.289062 C 19.339844 21.734375 20.15625 22.226562 19.046875 22.910156 C 20.84375 23.140625 21.851562 23.042969 22.507812 22.324219 C 22.34375 23.042969 23.386719 23.695312 23.386719 23.695312 C 23.386719 23.695312 19.929688 23.304688 19.601562 25.164062 C 19.277344 27.023438 20.320312 27.285156 20.417969 27.742188 C 20.515625 28.199219 19.796875 28.261719 19.277344 28.101562 C 18.753906 27.9375 17.578125 27.644531 16.894531 27.804688 C 17.644531 26.273438 17.21875 25 15.457031 25.71875 C 14.738281 25.976562 14.707031 26.957031 14.707031 26.957031 C 14.707031 26.957031 13.304688 27.21875 13.5 28.851562 C 13.695312 30.480469 14.9375 30.382812 14.9375 30.382812 C 14.9375 30.382812 14.542969 31.558594 15.71875 31.589844 C 16.894531 31.625 16.730469 30.15625 17.351562 30.285156 C 17.972656 30.417969 17.675781 31.949219 17.675781 31.949219 C 17.675781 31.949219 19.894531 32.242188 21.199219 32.113281 C 21.167969 32.636719 21.300781 32.929688 21.300781 32.929688 C 21.300781 32.929688 22.050781 31.328125 24.496094 31.265625 C 25.507812 32.539062 25.34375 32.667969 26.421875 32.929688 C 27.5 33.191406 28.019531 34.007812 27.140625 34.167969 C 26.257812 34.332031 25.671875 36.027344 25.671875 36.027344 C 25.671875 36.027344 24.367188 34.398438 22.996094 34.691406 C 21.625 34.984375 22.050781 36.976562 22.964844 37.171875 C 22.863281 38.214844 24.367188 38.507812 25.148438 38.445312 C 25.085938 39.359375 26.257812 39.386719 26.683594 38.667969 C 27.105469 37.949219 27.074219 37.855469 27.074219 37.855469 C 27.074219 37.855469 28.039062 38.945312 29.488281 36.257812 C 30.4375 36.0625 29.882812 34.429688 29.882812 34.429688 C 29.882812 34.429688 31.90625 34.007812 30.894531 32.34375 C 29.882812 30.679688 29.652344 28.164062 29.652344 28.164062 C 29.652344 28.164062 30.175781 28.492188 30.242188 27.382812 C 31.546875 27.707031 32.035156 28.003906 32.882812 29.144531 C 33.730469 30.285156 32.722656 30.839844 33.699219 31.984375 C 33.535156 32.699219 33.308594 33.09375 33.308594 33.09375 C 33.308594 33.09375 35.59375 32.210938 35.070312 29.570312 C 36.539062 28.65625 38.332031 26.695312 36.148438 23.792969 C 33.960938 20.890625 31.644531 17.199219 32.492188 14.066406 C 33.339844 10.933594 35.429688 11.554688 35.886719 11.914062 C 36.34375 12.273438 36.832031 14.71875 35.722656 15.570312 C 34.613281 16.417969 34.679688 17.59375 34.742188 18.34375 C 34.808594 19.09375 34.679688 19.777344 34.679688 19.777344 C 34.679688 19.777344 35.363281 19.484375 35.59375 18.667969 C 35.65625 19.910156 36.214844 20.691406 36.214844 20.691406 L 37.128906 19.191406 L 37.746094 19.386719 C 37.746094 19.386719 37.78125 16.941406 37.0625 15.828125 C 37.878906 13.449219 38.921875 11 36.214844 9.628906 C 33.503906 8.257812 30.992188 13.1875 30.796875 13.90625 C 30.601562 14.621094 29.816406 18.539062 32.363281 21.800781 C 34.90625 25.066406 36.117188 26.402344 35.363281 27.121094 C 34.613281 27.839844 32.625 26.894531 31.480469 25.980469 C 31.320312 24.835938 31.253906 23.792969 30.210938 23.203125 C 30.371094 21.867188 29.164062 20.070312 28.25 19.191406 C 29.261719 17.984375 29.066406 16.9375 28.96875 15.929688 C 29.394531 16.027344 29.882812 16.285156 29.882812 16.285156 L 29.6875 13.1875 C 29.6875 13.1875 31.058594 12.859375 30.46875 11.390625 C 30.46875 11.390625 30.210938 8.390625 29.914062 7.703125 C 30.664062 7.671875 27.988281 6.039062 27.988281 6.039062 L 28.316406 4.964844 C 28.316406 4.964844 26.390625 4.929688 25.769531 4.40625 C 25.707031 5.320312 23.976562 5.8125 23.910156 4.863281 C 23.453125 4.832031 22.867188 4.863281 22.867188 4.863281 C 22.867188 4.863281 23.324219 5.519531 22.539062 5.976562 C 21.757812 6.433594 20.878906 6.988281 20.746094 7.605469 C 19.863281 7.703125 19.765625 8.359375 19.765625 8.359375 C 19.765625 8.359375 18.65625 8.421875 19.277344 9.433594 C 19.898438 10.445312 20.976562 10.773438 21.628906 9.925781 C 22.3125 9.761719 23.0625 9.566406 23.324219 10.707031 C 23.585938 11.847656 20.976562 11.589844 20.976562 11.589844 C 20.976562 11.589844 21.105469 12.273438 22.085938 12.273438 C 23.0625 12.273438 19.796875 13.546875 19.796875 13.546875 Z M 19.796875 13.546875 "/>
<path style=" stroke:none;fill-rule:nonzero;fill:rgb(20.392157%,28.627452%,36.862746%);fill-opacity:1;" d="M 21.332031 8.261719 L 21.820312 8.457031 L 22.472656 8.261719 C 22.472656 8.261719 22.570312 8.75 23.160156 8.585938 C 23.746094 8.425781 23.421875 7.902344 23.421875 7.902344 C 23.421875 7.902344 24.660156 7.378906 25.019531 8.585938 C 25.378906 9.792969 24.398438 10.089844 24.398438 10.089844 C 24.398438 10.089844 24.726562 11.882812 23.257812 12.175781 C 21.789062 12.472656 20.972656 11.589844 20.972656 11.589844 C 20.972656 11.589844 21.199219 12.601562 20.484375 13.417969 C 21.625 13.839844 22.539062 12.992188 22.539062 12.992188 C 22.539062 12.992188 24.433594 12.992188 25.3125 11.523438 C 26.878906 12.210938 27.011719 10.839844 26.226562 9.4375 C 26.980469 9.207031 26.980469 9.078125 26.980469 9.078125 C 26.980469 9.078125 26.261719 8.488281 26.652344 7.640625 C 25.707031 7.738281 25.414062 6.859375 25.414062 6.433594 C 24.367188 7.085938 23.652344 6.957031 23.554688 6.46875 C 22.867188 7.410156 21.332031 8.261719 21.332031 8.261719 Z M 21.332031 8.261719 "/>
<path style=" stroke:none;fill-rule:nonzero;fill:rgb(20.392157%,28.627452%,36.862746%);fill-opacity:1;" d="M 26.617188 5.8125 C 26.617188 5.8125 28.28125 5.257812 28.542969 4.769531 C 28.804688 5.945312 28.707031 6.304688 28.707031 6.304688 C 28.707031 6.304688 29.945312 7.054688 30.960938 6.792969 C 31.546875 7.738281 29.914062 7.707031 29.914062 7.707031 C 29.914062 7.707031 30.828125 8.792969 30.601562 10.21875 C 30.910156 11.144531 30.796875 12.828125 29.945312 13.417969 C 29.75 15.015625 29.996094 16.445312 29.996094 16.445312 L 29.132812 16.0625 C 29.132812 16.0625 29.6875 17.203125 29.425781 17.984375 C 29.164062 18.769531 29 18.996094 29.457031 19.488281 C 28.9375 20.53125 29.945312 20.761719 30.175781 21.640625 C 30.402344 22.523438 30.371094 23.140625 30.371094 23.140625 C 30.371094 23.140625 32.101562 24.121094 31.839844 25.949219 C 31.839844 25.949219 34.15625 26.664062 34.777344 28.394531 C 34.972656 28.949219 35.527344 28.394531 35.527344 28.003906 C 36.148438 28.164062 36.496094 27.742188 36.34375 26.503906 C 36.210938 25.410156 35.085938 23.429688 33.832031 21.796875 C 32.859375 20.53125 31.1875 17.59375 31.613281 15.339844 C 32.035156 13.089844 33.636719 10.839844 35.527344 11.292969 C 37.421875 11.75 36.246094 14.910156 36.246094 14.910156 C 36.246094 14.910156 36.570312 11.945312 35.398438 11.882812 C 34.222656 11.816406 32.625 13.1875 32.527344 15.503906 C 32.429688 17.820312 33.992188 20.429688 34.746094 21.214844 C 35.496094 21.996094 36.929688 23.5625 37.421875 24.640625 C 37.910156 25.71875 37.453125 26.632812 37.453125 26.632812 C 37.453125 26.632812 38.464844 28.164062 36.898438 29.210938 C 37.128906 30.089844 35.691406 30.285156 35.265625 30.023438 C 35.496094 31.070312 35.070312 32.40625 34.289062 32.734375 C 34.648438 31.265625 34.679688 30.480469 34.09375 29.730469 C 33.503906 28.980469 33.160156 28.925781 33.160156 29.742188 C 32.410156 28.46875 31.726562 27.574219 30.226562 27.476562 C 29.671875 26.203125 28.21875 26.175781 28.21875 26.175781 C 28.21875 26.175781 29.296875 24.25 27.957031 23.367188 C 28.542969 22.03125 26.488281 20.335938 26.488281 20.335938 C 26.488281 20.335938 26.457031 18.472656 26 17.789062 C 25.542969 17.105469 24.792969 17.625 24.792969 17.625 C 24.792969 17.625 26.457031 16.058594 26.71875 15.179688 C 27.042969 16.125 26.882812 16.515625 26.882812 16.84375 C 26.882812 17.167969 27.339844 17.984375 27.339844 17.984375 L 28.351562 16.289062 L 27.46875 16.386719 C 27.46875 16.386719 29.328125 13.90625 28.382812 12.535156 C 29.363281 11.261719 28.253906 10.121094 28.253906 10.121094 L 29.035156 8.421875 C 29.035156 8.425781 26.847656 6.5625 26.617188 5.8125 Z M 26.617188 5.8125 "/>
<path style=" stroke:none;fill-rule:nonzero;fill:rgb(20.392157%,28.627452%,36.862746%);fill-opacity:1;" d="M 34.222656 9.660156 C 34.222656 9.660156 35.910156 9.535156 36.765625 10.34375 C 37.925781 11.4375 37.746094 14.035156 36.472656 15.832031 C 37.125 17.007812 36.960938 17.59375 36.960938 17.59375 L 36.539062 17.367188 C 36.539062 17.367188 36.765625 18.476562 36.539062 19.160156 C 36.308594 19.847656 36.210938 20.695312 36.210938 20.695312 L 37.289062 19.292969 L 37.875 19.519531 C 37.875 19.519531 38.171875 16.777344 37.320312 15.863281 C 37.90625 14.625 39.179688 11.882812 37.582031 10.1875 C 36.964844 9.4375 35.300781 9.070312 34.222656 9.660156 Z M 34.222656 9.660156 "/>
<path style=" stroke:none;fill-rule:nonzero;fill:rgb(20.392157%,28.627452%,36.862746%);fill-opacity:1;" d="M 28.839844 26.960938 C 28.839844 26.960938 30.371094 28.070312 30.339844 29.699219 C 31.839844 30.355469 31.644531 32.898438 31.644531 32.898438 C 31.644531 32.898438 32.949219 33.585938 30.46875 34.757812 C 31.480469 35.511719 30.796875 36.488281 29.03125 36.226562 C 28.316406 36 29.71875 34.953125 29.261719 34.136719 C 30.5 33.976562 30.4375 32.636719 29.621094 32.148438 C 28.804688 31.65625 29.324219 30.449219 29.324219 30.449219 L 28.410156 30.027344 C 28.410156 30.027344 29.359375 29.667969 29.195312 28.949219 C 29.03125 28.230469 28.773438 27.742188 28.839844 26.960938 Z M 28.839844 26.960938 "/>
<path style=" stroke:none;fill-rule:nonzero;fill:rgb(20.392157%,28.627452%,36.862746%);fill-opacity:1;" d="M 22.410156 35.019531 C 22.410156 35.019531 21.789062 36.71875 24.300781 36.324219 C 24.039062 37.792969 24.628906 38.085938 25.769531 37.628906 C 25.410156 38.871094 27.042969 37.957031 27.53125 36.617188 C 27.566406 37.890625 28.25 38.152344 29.328125 36.519531 C 28.542969 38.898438 27.46875 38.503906 27.171875 38.019531 C 26.847656 39.324219 25.378906 39.78125 24.855469 38.476562 C 23.84375 38.902344 22.375 38.316406 22.964844 37.171875 C 21.921875 36.683594 21.464844 36.324219 22.410156 35.019531 Z M 22.410156 35.019531 "/>
<path style=" stroke:none;fill-rule:nonzero;fill:rgb(20.392157%,28.627452%,36.862746%);fill-opacity:1;" d="M 23.8125 24.089844 C 23.8125 24.089844 21.429688 23.730469 21.070312 25.035156 C 20.710938 26.339844 22.34375 27.058594 21.203125 28.558594 C 20.058594 30.058594 19.996094 30.941406 19.996094 30.941406 C 19.996094 30.941406 20.191406 30.351562 21.332031 30.253906 C 22.476562 30.15625 21.234375 31.265625 21.105469 31.886719 C 20.972656 32.507812 21.398438 33.617188 21.398438 33.617188 C 21.398438 33.617188 21.855469 32.769531 22.574219 32.410156 C 23.292969 32.050781 24.042969 32.246094 24.761719 31.628906 C 23.488281 29.375 24.628906 27.546875 24.628906 27.546875 C 24.628906 27.546875 24.007812 26.078125 24.269531 25.164062 C 24.53125 24.25 23.8125 24.089844 23.8125 24.089844 Z M 23.8125 24.089844 "/>
<path style=" stroke:none;fill-rule:nonzero;fill:rgb(20.392157%,28.627452%,36.862746%);fill-opacity:1;" d="M 18.6875 30.808594 L 17.675781 31.953125 C 19.152344 32.253906 20.574219 32.324219 21.917969 32.082031 C 21.921875 32.082031 19.40625 31.855469 18.6875 30.808594 Z M 18.6875 30.808594 "/>
<path style=" stroke:none;fill-rule:nonzero;fill:rgb(20.392157%,28.627452%,36.862746%);fill-opacity:1;" d="M 15.882812 29.503906 C 15.882812 29.503906 15.488281 30.679688 14.445312 30.515625 C 13.402344 30.355469 13.207031 28.234375 13.207031 28.234375 C 13.207031 28.234375 13.304688 27.253906 14.316406 26.960938 C 15.328125 26.664062 15.949219 27.90625 15.949219 27.90625 C 15.949219 27.90625 14.871094 27.253906 14.25 27.578125 C 13.632812 27.90625 13.632812 28.199219 13.695312 28.753906 C 13.761719 29.308594 14.804688 30.09375 15.882812 29.503906 Z M 15.882812 29.503906 "/>
<path style=" stroke:none;fill-rule:nonzero;fill:rgb(20.392157%,28.627452%,36.862746%);fill-opacity:1;" d="M 15.132812 26.046875 C 15.132812 26.046875 17.1875 25.6875 16.699219 27.871094 C 18.003906 26.632812 17.480469 26.046875 17.058594 25.589844 C 16.632812 25.132812 15.394531 25.359375 15.132812 26.046875 Z M 15.132812 26.046875 "/>
<path style=" stroke:none;fill-rule:nonzero;fill:rgb(20.392157%,28.627452%,36.862746%);fill-opacity:1;" d="M 23.421875 17.855469 C 23.421875 17.855469 21.136719 20.105469 21.691406 21.574219 C 20.710938 22.0625 20.386719 20.5625 20.386719 20.5625 C 20.386719 20.5625 18.917969 21.476562 17.222656 20.988281 C 15.523438 20.496094 14.96875 21.019531 14.96875 21.019531 L 15.328125 20.074219 C 15.328125 20.074219 11.738281 21.28125 11.25 20.695312 C 10.761719 20.105469 11.902344 19.160156 11.902344 19.160156 C 11.902344 19.160156 10.304688 19.714844 10.367188 20.628906 C 10.433594 21.542969 11.214844 22.421875 12.195312 22.195312 C 13.175781 21.964844 13.273438 20.855469 14.054688 21.214844 C 14.839844 21.574219 13.632812 22.195312 13.632812 22.195312 C 13.632812 22.195312 15.003906 22.390625 15.425781 22.0625 C 15.851562 21.738281 16.894531 21.539062 16.566406 22.160156 C 16.242188 22.78125 15.851562 22.585938 15.851562 22.585938 C 15.851562 22.585938 17.023438 23.304688 18.035156 22.683594 C 19.046875 22.0625 19.929688 22.03125 19.210938 23.042969 C 20.710938 23.304688 22.082031 23.074219 22.703125 21.964844 C 23.324219 20.855469 23.617188 21.441406 23.617188 21.441406 Z M 23.421875 17.855469 "/>
<path style=" stroke:none;fill-rule:nonzero;fill:rgb(20.392157%,28.627452%,36.862746%);fill-opacity:1;" d="M 11.363281 15.847656 C 11.363281 15.847656 10.613281 17.445312 11.6875 17.773438 C 10.644531 18.035156 9.617188 16.625 11.363281 15.847656 Z M 11.363281 15.847656 "/>
<path style=" stroke:none;fill-rule:nonzero;fill:rgb(20.392157%,28.627452%,36.862746%);fill-opacity:1;" d="M 15.246094 6.476562 C 15.980469 6.625 16.746094 7.570312 15.882812 8.71875 C 16.109375 9.632812 15.328125 10.773438 15.328125 10.773438 C 15.328125 10.773438 16.699219 11.589844 16.4375 12.632812 C 17.515625 12.960938 18.328125 14.851562 18.328125 14.851562 C 18.328125 14.851562 19.34375 13.90625 19.929688 13.679688 C 19.601562 13.058594 18.460938 12.078125 17.253906 12.078125 C 17.675781 10.511719 16.601562 10.152344 16.601562 10.152344 C 16.601562 10.152344 17.023438 9.5 16.730469 8.980469 C 17.316406 8.03125 17.074219 6.183594 15.246094 6.476562 Z M 15.246094 6.476562 "/>
<path style=" stroke:none;fill-rule:nonzero;fill:rgb(20.392157%,28.627452%,36.862746%);fill-opacity:1;" d="M 16.210938 15.960938 C 16.210938 15.960938 17.367188 17.800781 18.671875 17.703125 C 18.542969 16.789062 19.34375 15.734375 19.34375 15.734375 C 19.34375 15.734375 18.625 15.308594 17.777344 15.800781 C 16.925781 16.289062 16.210938 15.960938 16.210938 15.960938 Z M 16.210938 15.960938 "/>
<path style=" stroke:none;fill-rule:nonzero;fill:rgb(93.725491%,60.392159%,60.392159%);fill-opacity:1;" d="M 18.625 10.179688 C 18.625 10.179688 18.214844 10.773438 19.144531 11.40625 C 20.011719 11.992188 21.53125 11.402344 22.019531 11.128906 C 22.503906 10.855469 22.578125 10.207031 21.722656 10.574219 C 20.871094 10.9375 18.976562 11.347656 19.007812 10.375 C 19.039062 9.398438 18.625 10.179688 18.625 10.179688 Z M 18.625 10.179688 "/>
</g>
</svg>
