<?xml version="1.0" encoding="UTF-8"?>
<svg xmlns="http://www.w3.org/2000/svg" xmlns:xlink="http://www.w3.org/1999/xlink" viewBox="0 0 60 60" width="60px" height="60px">
<g id="surface99356656">
<path fill="rgb(0%,0%,0%)" style=" stroke:none;fill-rule:nonzero;fill-opacity:1;" d="M 21.359375 8.363281 C 20.136719 8.363281 19.003906 8.636719 18 9.214844 C 14.863281 11.027344 13.667969 15.441406 14.300781 20.9375 C 9.226562 23.136719 6 26.378906 6 30 C 6 33.621094 9.226562 36.863281 14.300781 39.0625 C 13.667969 44.558594 14.863281 48.972656 18 50.785156 C 19.003906 51.363281 20.136719 51.636719 21.359375 51.636719 C 23.964844 51.636719 26.976562 50.328125 30 48.085938 C 33.023438 50.328125 36.039062 51.636719 38.644531 51.636719 C 39.867188 51.636719 41 51.363281 42.003906 50.785156 C 45.140625 48.972656 46.335938 44.558594 45.703125 39.0625 C 50.777344 36.863281 54 33.621094 54 30 C 54 26.378906 50.773438 23.136719 45.699219 20.9375 C 46.332031 15.441406 45.136719 11.027344 42 9.214844 C 40.996094 8.636719 39.863281 8.363281 38.640625 8.363281 C 36.035156 8.363281 33.023438 9.671875 30 11.914062 C 26.976562 9.671875 23.964844 8.363281 21.359375 8.363281 Z M 21.359375 11.863281 C 22.921875 11.863281 24.988281 12.695312 27.234375 14.234375 C 25.914062 15.480469 24.621094 16.894531 23.378906 18.472656 C 21.363281 18.761719 19.460938 19.183594 17.699219 19.710938 C 17.691406 19.589844 17.667969 19.460938 17.660156 19.339844 C 17.445312 15.78125 18.226562 13.125 19.75 12.246094 C 20.199219 11.984375 20.726562 11.863281 21.359375 11.863281 Z M 38.640625 11.863281 C 39.273438 11.863281 39.800781 11.984375 40.25 12.246094 C 41.773438 13.125 42.554688 15.78125 42.339844 19.339844 C 42.332031 19.460938 42.308594 19.589844 42.300781 19.710938 C 40.539062 19.183594 38.636719 18.761719 36.617188 18.472656 C 35.375 16.894531 34.085938 15.480469 32.765625 14.234375 C 35.011719 12.695312 37.078125 11.863281 38.640625 11.863281 Z M 30 16.457031 C 30.542969 16.949219 31.082031 17.472656 31.625 18.042969 C 31.085938 18.023438 30.546875 18 30 18 C 29.453125 18 28.917969 18.023438 28.378906 18.042969 C 28.921875 17.472656 29.457031 16.949219 30 16.457031 Z M 30 21.5 C 31.65625 21.5 33.226562 21.59375 34.71875 21.753906 C 35.628906 22.988281 36.523438 24.296875 37.363281 25.75 C 38.167969 27.144531 38.878906 28.570312 39.507812 30 C 38.878906 31.429688 38.167969 32.859375 37.363281 34.253906 C 36.527344 35.703125 35.632812 37 34.726562 38.234375 C 33.183594 38.402344 31.601562 38.5 30 38.5 C 28.34375 38.5 26.773438 38.40625 25.28125 38.246094 C 24.371094 37.011719 23.476562 35.707031 22.636719 34.253906 C 21.832031 32.859375 21.121094 31.429688 20.492188 30 C 21.121094 28.570312 21.832031 27.144531 22.636719 25.75 C 23.472656 24.300781 24.367188 23 25.273438 21.765625 C 26.816406 21.597656 28.398438 21.5 30 21.5 Z M 39.492188 22.582031 C 40.285156 22.773438 41.046875 22.980469 41.765625 23.210938 C 41.601562 23.945312 41.40625 24.691406 41.179688 25.449219 C 40.921875 24.964844 40.671875 24.480469 40.394531 24 C 40.109375 23.503906 39.789062 23.058594 39.492188 22.582031 Z M 20.503906 22.585938 C 20.207031 23.0625 19.890625 23.507812 19.605469 24 C 19.328125 24.480469 19.078125 24.964844 18.820312 25.449219 C 18.59375 24.691406 18.394531 23.941406 18.230469 23.207031 C 18.960938 22.976562 19.722656 22.773438 20.503906 22.585938 Z M 14.9375 24.492188 C 15.359375 26.269531 15.945312 28.117188 16.695312 29.996094 C 15.945312 31.871094 15.363281 33.714844 14.941406 35.488281 C 11.457031 33.804688 9.5 31.710938 9.5 30 C 9.5 28.242188 11.402344 26.238281 14.59375 24.644531 C 14.703125 24.589844 14.828125 24.546875 14.9375 24.492188 Z M 45.058594 24.511719 C 48.542969 26.195312 50.5 28.289062 50.5 30 C 50.5 31.757812 48.597656 33.761719 45.40625 35.355469 C 45.296875 35.410156 45.171875 35.453125 45.0625 35.507812 C 44.640625 33.726562 44.0625 31.882812 43.308594 30 C 44.058594 28.125 44.636719 26.285156 45.058594 24.511719 Z M 30 26 C 27.789062 26 26 27.789062 26 30 C 26 32.210938 27.789062 34 30 34 C 32.210938 34 34 32.210938 34 30 C 34 27.789062 32.210938 26 30 26 Z M 18.820312 34.550781 C 19.078125 35.035156 19.332031 35.519531 19.609375 36 C 19.894531 36.496094 20.210938 36.941406 20.507812 37.417969 C 19.714844 37.226562 18.953125 37.019531 18.234375 36.789062 C 18.398438 36.054688 18.59375 35.308594 18.820312 34.550781 Z M 41.179688 34.554688 C 41.40625 35.3125 41.605469 36.058594 41.769531 36.792969 C 41.039062 37.023438 40.277344 37.226562 39.496094 37.414062 C 39.792969 36.9375 40.109375 36.492188 40.394531 36 C 40.671875 35.519531 40.921875 35.035156 41.179688 34.554688 Z M 17.699219 40.289062 C 19.460938 40.816406 21.363281 41.238281 23.382812 41.527344 C 24.625 43.105469 25.914062 44.523438 27.234375 45.769531 C 24.988281 47.308594 22.921875 48.140625 21.359375 48.140625 C 20.726562 48.140625 20.199219 48.015625 19.75 47.753906 C 18.226562 46.875 17.445312 44.222656 17.660156 40.664062 C 17.667969 40.542969 17.691406 40.414062 17.699219 40.289062 Z M 42.300781 40.289062 C 42.308594 40.414062 42.332031 40.542969 42.339844 40.664062 C 42.554688 44.222656 41.773438 46.875 40.25 47.753906 C 39.800781 48.015625 39.273438 48.140625 38.640625 48.140625 C 37.078125 48.140625 35.011719 47.308594 32.765625 45.769531 C 34.085938 44.523438 35.378906 43.105469 36.621094 41.527344 C 38.636719 41.238281 40.539062 40.816406 42.300781 40.289062 Z M 28.375 41.957031 C 28.914062 41.976562 29.453125 42 30 42 C 30.546875 42 31.085938 41.976562 31.625 41.957031 C 31.082031 42.527344 30.542969 43.050781 30 43.542969 C 29.457031 43.050781 28.917969 42.527344 28.375 41.957031 Z M 28.375 41.957031 "/>
</g>
</svg>
