<svg fill="#505F79" xmlns="http://www.w3.org/2000/svg"  viewBox="0 0 64 64" width="64px" height="64px"><path d="M61.932,15.439c-2.099,0.93-4.356,1.55-6.737,1.843c2.421-1.437,4.283-3.729,5.157-6.437	c-2.265,1.328-4.774,2.303-7.444,2.817C50.776,11.402,47.735,10,44.366,10c-6.472,0-11.717,5.2-11.717,11.611	c0,0.907,0.106,1.791,0.306,2.649c-9.736-0.489-18.371-5.117-24.148-12.141c-1.015,1.716-1.586,3.726-1.586,5.847	c0,4.031,2.064,7.579,5.211,9.67c-1.921-0.059-3.729-0.593-5.312-1.45c0,0.035,0,0.087,0,0.136c0,5.633,4.04,10.323,9.395,11.391	c-0.979,0.268-2.013,0.417-3.079,0.417c-0.757,0-1.494-0.086-2.208-0.214c1.491,4.603,5.817,7.968,10.942,8.067	c-4.01,3.109-9.06,4.971-14.552,4.971c-0.949,0-1.876-0.054-2.793-0.165C10.012,54.074,16.173,56,22.786,56	c21.549,0,33.337-17.696,33.337-33.047c0-0.503-0.016-1.004-0.04-1.499C58.384,19.83,60.366,17.78,61.932,15.439"/></svg>